<svg id="Слой_1" data-name="Слой 1" xmlns="http://www.w3.org/2000/svg" viewBox="0 0 841.89 595.28"><defs><style>.cls-1{fill:#005092;}.cls-2{fill:#fff;}</style></defs><title>1</title><g id="Слой_21" data-name="Слой 21"><rect class="cls-1" x="256.95" y="179.25" width="327.96" height="237.19"/><rect class="cls-2" x="397.34" y="214.61" width="19.56" height="77.59"/><polygon class="cls-2" points="331.8 302.15 331.8 331.21 314.53 331.2 314.53 302.15 294.96 302.15 294.96 379.63 314.53 379.63 314.53 350.76 331.8 350.77 331.8 379.64 351.37 379.64 351.37 302.15 331.8 302.15"/><polygon class="cls-2" points="426.14 292.2 426.14 214.64 445.19 214.64 463.04 258.68 463.04 214.64 482.06 214.64 482.06 292.2 463.04 292.2 445.19 247.88 445.17 292.2 426.14 292.2"/><polygon class="cls-2" points="525.11 214.45 546.77 214.43 530.63 246.86 546.79 292.2 526.74 292.2 515.04 258.51 510.71 268.81 510.56 292.2 491.35 292.2 491.35 214.45 510.71 214.45 510.56 246.93 525.11 214.45"/><path class="cls-2" d="M388.77,300.21h0c-28,0-28.12,25.08-28.12,25.08v54.37h19.15V360.55h18v19.11h19.16V325.29s-.11-25.08-28.12-25.08"/><path class="cls-1" d="M397.73,326.49a9,9,0,1,0-18,0v14.44h18Z"/><path class="cls-2" d="M463.06,353.38a9,9,0,0,1-8.87,9,9.16,9.16,0,0,1-9-9V302.16h-19v54.08s.12,25,27.94,25h0c27.81,0,27.94-25,27.94-25V302.16h-19Z"/><path class="cls-2" d="M521.94,361.08a5.71,5.71,0,0,0,5.67-5.72,5.84,5.84,0,0,0-5.85-5.7l-7.74,0c-8.08,0-25.31-4.09-25.31-24.89,0-23.6,24.45-22.61,24.45-22.61h31.6v18.21h-30.4a5.59,5.59,0,1,0,.18,11.18h10.75s21.61.25,21.61,24.66-22.41,23.49-22.41,23.49H488.71V361.12Z"/><path class="cls-2" d="M388.82,269.54c0,13.71-9.12,25-28.08,25-7.26,0-14.77-2.29-18.84-7.77-4.07,5.48-11.58,7.77-18.85,7.77-19,0-28.08-11.31-28.08-25v-54.9H316.4V267.9a7.38,7.38,0,0,0,14.75,0l0-53.25h21.44l0,53.27a7.38,7.38,0,0,0,14.76,0V214.65h21.43Z"/></g></svg>