<svg id="Слой_1" data-name="Слой 1" xmlns="http://www.w3.org/2000/svg" viewBox="0 0 841.89 595.28"><defs><style>.cls-1{fill:#231f21;}.cls-2{fill:#e52328;}.cls-3{fill:none;stroke:#231f21;stroke-width:0.43px;}</style></defs><title>1</title><g id="Слой_14" data-name="Слой 14"><path class="cls-1" d="M390.78,214.6H236.28v92.49h38.63a44.73,44.73,0,0,1-9.66-27.75c0-25.54,21.61-46.25,48.28-46.25s48.27,20.71,48.27,46.25a44.83,44.83,0,0,1-9.64,27.75h38.62Z"/><path class="cls-2" d="M294.81,270.1h-.59v111H410.09v-.57c-55.35-15.62-99-57.4-115.28-110.41"/><path class="cls-1" d="M444.25,291.08c.24,0,.6,0,1.09-.07a14.23,14.23,0,0,0,1.59-.19,16,16,0,0,0,1.74-.39,7.66,7.66,0,0,0,1.59-.65,6.09,6.09,0,0,0,2.57-3,9.46,9.46,0,0,0,.73-3.44v-4.12c0-.37,0-.84,0-1.38a6.06,6.06,0,0,0-.29-1.69,7.51,7.51,0,0,0-.79-1.75,6.46,6.46,0,0,0-1.42-1.6,7.18,7.18,0,0,0-3.33-1.48,23.22,23.22,0,0,0-3.45-.28h-4v20Zm1.81-21.14a29.4,29.4,0,0,1,6.06.65,11.36,11.36,0,0,1,5.35,2.73,10.12,10.12,0,0,1,2.94,4.4,9.35,9.35,0,0,1,.44,2c.06.61.08,1.09.08,1.47a11.07,11.07,0,0,1-.31,2.82,9.73,9.73,0,0,1-.83,2.16,11.1,11.1,0,0,1-1,1.58,13.59,13.59,0,0,1-.95,1,11.18,11.18,0,0,1-5.19,2.68,29,29,0,0,1-6.67.75h-5.71v13.55h4.47v1.11H429.29v-1.11h4.47V271.05h-4.47v-1.11Z"/><path class="cls-3" d="M444.26,291.06c.24,0,.59,0,1.08-.05s1-.11,1.58-.21a14.25,14.25,0,0,0,1.73-.39,7.25,7.25,0,0,0,1.58-.64,6,6,0,0,0,2.54-3,9.07,9.07,0,0,0,.73-3.41v-4.1c0-.37,0-.83,0-1.37a5.73,5.73,0,0,0-.3-1.68,7.65,7.65,0,0,0-.78-1.75,6.75,6.75,0,0,0-1.41-1.59,7.25,7.25,0,0,0-3.3-1.46,23,23,0,0,0-3.43-.27h-4v19.9Zm1.79-21a29.1,29.1,0,0,1,6,.64,11.24,11.24,0,0,1,5.31,2.71,10.66,10.66,0,0,1,1.88,2.19,10.81,10.81,0,0,1,1.05,2.18,9.42,9.42,0,0,1,.43,2c.06.6.09,1.09.09,1.46a10.89,10.89,0,0,1-.32,2.8,9.45,9.45,0,0,1-.82,2.15,11.1,11.1,0,0,1-1,1.58,11.4,11.4,0,0,1-.95,1,11,11,0,0,1-5.15,2.66,28.64,28.64,0,0,1-6.62.75h-5.68v13.47h4.44v1.1H429.39v-1.1h4.45V271.16h-4.45v-1.11Z"/><path class="cls-1" d="M527,269.35v12H525.8a15.14,15.14,0,0,0-.23-1.59c-.12-.66-.28-1.36-.47-2.08a19.17,19.17,0,0,0-.71-2.1,8.37,8.37,0,0,0-.94-1.74,8.77,8.77,0,0,0-3-2.41,9.4,9.4,0,0,0-4.23-.94,10.51,10.51,0,0,0-2.7.33,9.45,9.45,0,0,0-2.15.87,8.41,8.41,0,0,0-1.54,1.13,9,9,0,0,0-1.07,1.09,9.55,9.55,0,0,0-1.64,2.74,17.67,17.67,0,0,0-.88,3,24.37,24.37,0,0,0-.39,2.86c-.06.9-.08,1.65-.08,2.24v9.09c0,.75,0,1.56.11,2.44a13.5,13.5,0,0,0,.51,2.67,11.71,11.71,0,0,0,1.08,2.61,9.31,9.31,0,0,0,1.84,2.32,9.17,9.17,0,0,0,2.74,1.74,7.92,7.92,0,0,0,3.16.68,10.21,10.21,0,0,0,5-1.41,11,11,0,0,0,5.53-6.82c.34-1.13.62-2.32.86-3.55H528l-.48,12.29h-1.5a3,3,0,0,0-.09-.55,2.83,2.83,0,0,0-.29-.76,2.4,2.4,0,0,0-.54-.65,1.36,1.36,0,0,0-.91-.28,3.13,3.13,0,0,0-1.49.39l-1.62.84A13.44,13.44,0,0,1,518,307a16,16,0,0,1-3.61.39,15.4,15.4,0,0,1-10-3.78,16.5,16.5,0,0,1-2.74-3.18,20.44,20.44,0,0,1-2.22-5,21.9,21.9,0,0,1-.89-6.63,24.68,24.68,0,0,1,.73-6.1,19.73,19.73,0,0,1,2.49-5.66,18.72,18.72,0,0,1,3.39-3.88,15.94,15.94,0,0,1,3.64-2.37,14.84,14.84,0,0,1,3.64-1.14,18.58,18.58,0,0,1,3.19-.32,12.82,12.82,0,0,1,2.38.2,16,16,0,0,1,2.21.6l2,.69a3.83,3.83,0,0,0,1.35.26,2,2,0,0,0,2.06-1.75Z"/><path class="cls-3" d="M526.87,269.45v11.91h-1.16a15.39,15.39,0,0,0-.23-1.58c-.12-.65-.27-1.34-.47-2.06a17.64,17.64,0,0,0-.69-2.09,7.43,7.43,0,0,0-3.92-4.12,9.14,9.14,0,0,0-4.2-.95,10.83,10.83,0,0,0-2.69.33,9.19,9.19,0,0,0-2.12.87,9.4,9.4,0,0,0-1.55,1.12,10.33,10.33,0,0,0-1,1.08,9.89,9.89,0,0,0-1.63,2.74,18.23,18.23,0,0,0-.87,3,20.74,20.74,0,0,0-.38,2.85c-.07.9-.09,1.64-.09,2.23v9c0,.74,0,1.54.11,2.41a14.13,14.13,0,0,0,.5,2.66,12.62,12.62,0,0,0,1.07,2.6,10,10,0,0,0,1.84,2.31,9.32,9.32,0,0,0,2.71,1.73,8,8,0,0,0,3.15.68,10.3,10.3,0,0,0,5-1.4,12.07,12.07,0,0,0,4-3.57,11.73,11.73,0,0,0,1.48-3.22c.34-1.13.62-2.31.86-3.53h1.42l-.48,12.23H526a3.16,3.16,0,0,0-.1-.56,2.74,2.74,0,0,0-.28-.75,2.6,2.6,0,0,0-.54-.65,1.35,1.35,0,0,0-.9-.28,3.13,3.13,0,0,0-1.49.39l-1.61.84a13.63,13.63,0,0,1-3.12,1.2,15.83,15.83,0,0,1-3.6.39,15.14,15.14,0,0,1-6.78-1.62,14.6,14.6,0,0,1-3.18-2.15,16.32,16.32,0,0,1-2.72-3.16,20.57,20.57,0,0,1-2.21-5,22,22,0,0,1-.88-6.59,24.33,24.33,0,0,1,.72-6.07,19.42,19.42,0,0,1,2.48-5.63,19.05,19.05,0,0,1,3.36-3.86,15.67,15.67,0,0,1,3.61-2.35,14.41,14.41,0,0,1,3.62-1.14,18.47,18.47,0,0,1,3.18-.32,12.67,12.67,0,0,1,2.36.2,19.07,19.07,0,0,1,2.19.59l2,.7a4,4,0,0,0,1.34.25,2,2,0,0,0,2-1.74Z"/><path class="cls-1" d="M546.13,279.23l-5.65,14h10.65Zm-8,20.13c-.19.45-.43,1.11-.7,2a7.24,7.24,0,0,0-.41,2.14,1.75,1.75,0,0,0,.38,1.21,2.71,2.71,0,0,0,1.21.71,10.31,10.31,0,0,0,1.09.2l1.08.14v1.11h-9.9v-1.11a5.24,5.24,0,0,0,1.85-.58,5.77,5.77,0,0,0,1.57-1.06,6.25,6.25,0,0,0,.89-1.22,7.48,7.48,0,0,0,.46-1l12.82-31.95h1.06l13.24,35.79h3.93v1.11h-16v-1.11h5.17l-4.27-11.38H540.2Z"/><path class="cls-3" d="M546.15,279.28l-5.62,13.92h10.58Zm-8,20c-.19.45-.43,1.11-.7,2a7.4,7.4,0,0,0-.41,2.13,1.74,1.74,0,0,0,.39,1.21,2.7,2.7,0,0,0,1.2.7c.31.07.66.14,1.08.2l1.08.13v1.1h-9.84v-1.1a5.45,5.45,0,0,0,1.83-.56,5.81,5.81,0,0,0,1.56-1.07,5.51,5.51,0,0,0,.88-1.21,5.94,5.94,0,0,0,.46-1l12.76-31.76h1l13.17,35.58h3.91v1.1H550.64v-1.1h5.14l-4.25-11.32H540.24Z"/><path class="cls-1" d="M605.58,271.06h-4.46v34.67h4.46v1.1H590.16v-1.1h4.46V271.06h-6.53a16.73,16.73,0,0,0-2.12.17,4.22,4.22,0,0,0-2.36,1.06,3.58,3.58,0,0,0-1.09,1.69,12.28,12.28,0,0,0-.37,1.8c-.09.61-.15,1.27-.19,2s-.07,1.6-.09,2.59,0,2.18-.06,3.53,0,2.93-.08,4.72l-.24,9.07c0,1.39-.09,2.64-.15,3.74a8.2,8.2,0,0,1-.67,3A4.9,4.9,0,0,1,579.6,306a5,5,0,0,1-1.43,1,5.44,5.44,0,0,1-2.48.43,8.15,8.15,0,0,1-4.7-1.25,5.54,5.54,0,0,1-1.49-1.55,4.46,4.46,0,0,1-.68-2.57,4.27,4.27,0,0,1,1.06-3,3.78,3.78,0,0,1,3-1.19,3.7,3.7,0,0,1,2.61.9,2.82,2.82,0,0,1,1,2.14,4.55,4.55,0,0,1-.75,2.59c-.2.27-.37.51-.52.74a1.11,1.11,0,0,0-.24.62,1.56,1.56,0,0,0,.29.74,1.47,1.47,0,0,0,1.28.44,3.24,3.24,0,0,0,1.63-.47,3.72,3.72,0,0,0,1.4-1.84,6.8,6.8,0,0,0,.55-2.47c.06-.93.12-2.14.15-3.6l.24-9.06c0-1.88.08-3.39.11-4.56s.06-2.08.06-2.75v-4.57c0-.56,0-1.21-.09-2a3.73,3.73,0,0,0-.85-2.08,4,4,0,0,0-1.05-.9,5.43,5.43,0,0,0-1.19-.53,5.69,5.69,0,0,0-1.87-.2h-1.41V270h31.37Z"/><path class="cls-3" d="M605.48,271.15h-4.43v34.49h4.43v1.09H590.15v-1.09h4.43V271.15h-6.49a18.85,18.85,0,0,0-2.12.17,4.2,4.2,0,0,0-2.34,1.06,3.49,3.49,0,0,0-1.08,1.69,10.89,10.89,0,0,0-.37,1.78c-.09.6-.15,1.27-.19,2s-.07,1.59-.1,2.58,0,2.16,0,3.5-.06,2.92-.09,4.7l-.23,9c0,1.39-.1,2.62-.16,3.72a8.14,8.14,0,0,1-.67,2.94,4.78,4.78,0,0,1-1.05,1.62,4.94,4.94,0,0,1-1.43,1,5.53,5.53,0,0,1-2.47.43,8.15,8.15,0,0,1-4.67-1.24,5.68,5.68,0,0,1-1.49-1.55,4.49,4.49,0,0,1-.66-2.55,4.24,4.24,0,0,1,1-3,3.79,3.79,0,0,1,3-1.18,3.65,3.65,0,0,1,2.6.9,2.75,2.75,0,0,1,1,2.12,4.49,4.49,0,0,1-.74,2.58c-.2.27-.36.51-.52.74a1.11,1.11,0,0,0-.23.61,1.46,1.46,0,0,0,.28.73c.2.3.62.45,1.28.45a3.27,3.27,0,0,0,1.63-.47,3.82,3.82,0,0,0,1.38-1.83,6.75,6.75,0,0,0,.55-2.46c.06-.93.12-2.12.15-3.58l.23-9c.05-1.87.09-3.37.12-4.53s.06-2.07.06-2.75V276.8c0-.56,0-1.21-.09-1.95a3.76,3.76,0,0,0-.85-2.08,4,4,0,0,0-1-.89,6.19,6.19,0,0,0-1.18-.53,5.91,5.91,0,0,0-1.86-.2h-1.4V270h31.2Z"/><path class="cls-1" d="M477.49,271.1h-5l11.63,23.48,7.27-17.76a9.25,9.25,0,0,0,.56-1.73,8.41,8.41,0,0,0,.26-1.79,1.87,1.87,0,0,0-.78-1.66,3.33,3.33,0,0,0-1.87-.54h-.83V270h10.05v1.13a5.29,5.29,0,0,0-2.28.45A6,6,0,0,0,495,272.6a5.64,5.64,0,0,0-1,1.22,7.6,7.6,0,0,0-.48,1l-8.32,20.65c-.48,1.14-.93,2.14-1.4,3s-.91,1.74-1.38,2.57a31.32,31.32,0,0,1-1.68,2.69,13,13,0,0,1-1.93,2.18,7,7,0,0,1-2.09,1.36,6.73,6.73,0,0,1-2.39.39,8.81,8.81,0,0,1-3.19-.53,9.26,9.26,0,0,1-2.36-1.34,5.83,5.83,0,0,1-2-2.57,7.57,7.57,0,0,1-.44-2.4,4.45,4.45,0,0,1,.24-1.48,4.22,4.22,0,0,1,.69-1.33,4.31,4.31,0,0,1,1.25-1,4,4,0,0,1,1.82-.39,3.73,3.73,0,0,1,2.85,1,3.11,3.11,0,0,1,.94,2.05,3.15,3.15,0,0,1-.24,1.24,3.43,3.43,0,0,1-.58,1.07,5.45,5.45,0,0,1-1.6,1.39,1.41,1.41,0,0,0-.89,1.22,1.82,1.82,0,0,0,.74,1.24,3.51,3.51,0,0,0,2.4.69,5.43,5.43,0,0,0,2.51-.63,8.34,8.34,0,0,0,2-1.47,8.78,8.78,0,0,0,1.17-1.54l.71-1.12L465.32,271.1h-4.07V270h16.24Z"/><path class="cls-3" d="M477.5,271.2h-4.93l11.58,23.35,7.23-17.67a11,11,0,0,0,.55-1.72,8.26,8.26,0,0,0,.26-1.77,1.86,1.86,0,0,0-.79-1.66,3.21,3.21,0,0,0-1.85-.53h-.83v-1.13h10v1.13a5.13,5.13,0,0,0-2.27.45,6.13,6.13,0,0,0-1.53,1,5.26,5.26,0,0,0-1,1.21,6.16,6.16,0,0,0-.47,1l-8.29,20.54c-.47,1.14-.93,2.13-1.39,3s-.91,1.73-1.37,2.55a29.62,29.62,0,0,1-1.68,2.68,13.25,13.25,0,0,1-1.91,2.17,6.94,6.94,0,0,1-2.08,1.35,6.67,6.67,0,0,1-2.38.39,8.91,8.91,0,0,1-3.17-.53,9.41,9.41,0,0,1-2.36-1.33,5.87,5.87,0,0,1-2-2.56,7.65,7.65,0,0,1-.43-2.38,4.61,4.61,0,0,1,.23-1.47,4.67,4.67,0,0,1,.69-1.33,4,4,0,0,1,1.25-1,3.93,3.93,0,0,1,1.81-.39,3.64,3.64,0,0,1,2.83,1,3,3,0,0,1,1,2,3.16,3.16,0,0,1-.25,1.24,3.43,3.43,0,0,1-.58,1.07,5.26,5.26,0,0,1-1.59,1.38,1.4,1.4,0,0,0-.87,1.22,1.8,1.8,0,0,0,.73,1.23,3.45,3.45,0,0,0,2.38.68,5.5,5.5,0,0,0,2.5-.62,8.38,8.38,0,0,0,2-1.46,9.09,9.09,0,0,0,1.17-1.53l.71-1.12-15-30.5h-4v-1.13H477.5Z"/></g></svg>