<svg id="Слой_1" data-name="Слой 1" xmlns="http://www.w3.org/2000/svg" viewBox="0 0 841.89 595.28"><defs><style>.cls-1{fill:#123274;}.cls-2{fill:#009fe3;}</style></defs><title>1</title><g id="Слой_18" data-name="Слой 18"><path class="cls-1" d="M344.41,236.8H333v-9.45h11.37V211.83l17.71-4.15v19.67h15.71v9.45H362.12V260c0,4.23,1.58,8.19,8.32,8.19a20.77,20.77,0,0,0,8.05-1.34L379,277A63.1,63.1,0,0,1,366,278.2c-13.88,0-21.54-6.27-21.54-16.11Z"/><path class="cls-1" d="M444.56,277H427.78v-6.76h-.27c-5.42,4.83-13.08,7.92-22.33,7.92-16.12,0-23.12-8.3-23.12-19.49V227.35h17.71v26.53c0,6.09.13,14.28,11.49,14.28,12.82,0,15.59-10.13,15.59-16.49V227.35h17.71Z"/><path class="cls-1" d="M483,268.16c11.62,0,14.92-9.26,14.92-16.11,0-6.65-3.16-15.83-14.66-15.83s-15.86,8.88-15.86,15.83,3.84,16.11,15.6,16.11m-33.44-60.47h17.71v26h.27c4.88-4.72,11.09-7.52,20.35-7.52,20.87,0,28.53,12.15,28.53,25.85s-7.66,26.15-28.53,26.15c-7.54,0-15.73-1.94-20.88-7.25h-.26V277H449.55Z"/><rect class="cls-1" x="520.1" y="207.69" width="17.71" height="69.35"/><path class="cls-1" d="M546.24,207.69H564v10.6H546.24Zm0,19.66H564V277H546.24Z"/><path class="cls-1" d="M572,227.35h16.78v6.76H589c5.55-5.7,13.09-7.92,22.33-7.92,16.12,0,23.12,8.3,23.12,19.49V277H616.78V250.51c0-6.07-.14-14.29-11.51-14.29-12.81,0-15.58,10.15-15.58,16.51V277H572Z"/><path class="cls-1" d="M665.91,268.73c5.42,0,9.64-1.72,12.42-4.43s3.7-6.37,3.7-10.23h-7.67c-7.92,0-19.69,1-19.69,8.59,0,4.24,4.89,6.07,11.24,6.07M645.16,230a80.59,80.59,0,0,1,23.65-3.76c20.75,0,29.34,6.26,29.34,20.94v6.36c0,5,.13,8.78.26,12.45s.39,7.23.79,11.09H683.61a44.47,44.47,0,0,1-.79-7.43h-.27c-4.09,5.5-12.95,8.59-21,8.59-12,0-23.78-5.3-23.78-14.76,0-7.43,4.89-11.78,11.62-14.19s15.47-2.89,22.85-2.89H682c0-8-4.9-10.72-15.33-10.72a44.56,44.56,0,0,0-21,5.41Z"/><path class="cls-2" d="M236.28,249.31l5.29-21.86c-11.85-.44-26.06,2.5-35.32,7.06-8.11,4-15.62,10.39-10.53,15.93,7.26,7.9,22.71,1.85,40.56-1.13"/><path class="cls-2" d="M269.17,322.1c-16.84,8.3-29.65,12.38-43.66,14.58l-20.9-26c11.89-.87,27.93-3.77,41.44-10.4,7.68-3.79,14.11-8.64,7.77-15.5C238.39,268,196.08,306,163.08,270.12c-8.6-9.38-10.89-18.47-9.1-26.64-2.67,8.07-6.75,23-10.82,43.44-.08.36-.06.62-.12,1a22.85,22.85,0,0,0-.29,2.35c-.05.57-.09,1.14-.09,1.67-.07,6.82,2.7,14.13,9.62,21.66,15.2,16.52,31.5,20.84,47.12,18.58L191.8,362l20.89,26c14-2.2,26.84-6.3,43.68-14.58,15.22-7.49,29.83-22.28,32-35.4,1.54-5.21,4-15.43,10.34-42.12-4.23,10.87-16.2,19.66-29.52,26.2"/><path class="cls-1" d="M293.57,267.63a44.42,44.42,0,0,0,9.1,1.11c4.49,0,11.64-1.25,11.64-6.08,0-9.74-30.8-3.09-30.8-21,0-10.7,12.82-15.44,26.69-15.44A110.11,110.11,0,0,1,329.5,228l-1.19,9.74a57.89,57.89,0,0,0-15.86-2.13c-4.76,0-10.44,1.26-10.44,5.51,0,7.91,30.79,2.89,30.79,20.83,0,11.59-14.14,16.21-28.54,16.21-2.1,0-4.06-.16-6.16-.32a29.83,29.83,0,0,0-4.53-10.24"/><path class="cls-2" d="M399.08,307.68a5.84,5.84,0,0,0-1.25-4.13,5.29,5.29,0,0,0-4-1.77,5.13,5.13,0,0,0-4,1.8,6.57,6.57,0,0,0-1.22,4.26v9c0,2.25.43,3.57,1.45,4.61a5.41,5.41,0,0,0,3.81,1.53,5.23,5.23,0,0,0,4.08-1.89,6,6,0,0,0,1.14-4Zm-13.19.12a8.76,8.76,0,0,1,2-6.14,8.13,8.13,0,0,1,6-2.69c4.52,0,7.89,3.57,7.89,8.31v10.15a8,8,0,0,1-7.93,8.31,7.74,7.74,0,0,1-5.85-2.61c-1.49-1.65-2.12-3.49-2.12-6.34Z"/><path class="cls-2" d="M414,323c2.63,0,3.49-.8,3.49-3.33v-7c0-2.29-.94-3.21-3.25-3.21h-4.6V323Zm-4.36,9a1.36,1.36,0,1,1-2.71,0V309.2c0-2,.47-2.52,2.28-2.52h4.83c2.59,0,4,.52,5,1.88a6.92,6.92,0,0,1,1.18,4.29v6.71c0,4.25-1.88,6.18-6,6.18h-4.55Z"/><path class="cls-2" d="M434.68,314.79c0-3.7-1.14-5.31-3.68-5.31a3.44,3.44,0,0,0-3.61,3,8.82,8.82,0,0,0-.16,2.33ZM427.23,319c0,3.17.7,4,3.49,4H436a1.39,1.39,0,1,1,0,2.77h-5.34c-2.75,0-4.2-.52-5.1-1.84a8.6,8.6,0,0,1-1.06-4.42v-5.86c0-4,2.74-6.94,6.44-6.94a6.27,6.27,0,0,1,5.61,3.45,9.52,9.52,0,0,1,.87,4.21c0,2.73-.28,3.21-1.85,3.21h-8.36Z"/><path class="cls-2" d="M444.78,324.25a1.36,1.36,0,0,1-1.38,1.49,1.35,1.35,0,0,1-1.33-1.49v-15.6c0-1.53.51-2,2.35-2h5.07c4.16,0,5.84,2,5.84,6.9v10.67a1.36,1.36,0,1,1-2.7,0V313.82c0-3.49-.79-4.38-3.81-4.38h-4Z"/><path class="cls-2" d="M472.33,299a1.39,1.39,0,1,1,0,2.77h-5.09c-3,0-4.09,1.25-4.09,4.74v11.76c0,3.48,1.06,4.73,4.09,4.73h5.09a1.39,1.39,0,1,1,0,2.77h-4.66c-4.88,0-7.23-2.33-7.23-7.07V306c0-4.78,2.35-7.07,7.23-7.07Z"/><path class="cls-2" d="M477.05,300.46a1.35,1.35,0,0,1,1.33-1.49,1.36,1.36,0,0,1,1.38,1.49V319.8c0,2.29.19,2.65,2,3.61a1,1,0,0,1,.54,1,1.2,1.2,0,0,1-1.21,1.37A4.4,4.4,0,0,1,478,324.1a6.18,6.18,0,0,1-.93-3.86Z"/><path class="cls-2" d="M487.84,317.59c0,3.41,1.46,5.34,4.05,5.34s4-1.93,4-5.34v-2.65c0-3.61-1.34-5.46-4-5.46s-4.05,1.85-4.05,5.46Zm-2.71-3.53c0-4.41,2.71-7.38,6.71-7.38s6.76,3,6.76,7.38v4.3c0,4.41-2.71,7.38-6.71,7.38s-6.76-3-6.76-7.38Z"/><path class="cls-2" d="M513.09,307.76a1.17,1.17,0,0,1,.85,1.21,1.32,1.32,0,0,1-1.33,1.4,6.09,6.09,0,0,1-2-.44,7.31,7.31,0,0,0-2.48-.44c-1.8,0-3.09.84-3.09,2.05a2.27,2.27,0,0,0,1.06,1.76,34.3,34.3,0,0,0,3,1.68,25.14,25.14,0,0,1,4,2.37,4.8,4.8,0,0,1,1.85,3.73c0,2.73-2.55,4.66-6.12,4.66-3.26,0-7-1.77-7-3.33a1.33,1.33,0,0,1,1.22-1.33,4.08,4.08,0,0,1,1.72.64,8.47,8.47,0,0,0,4.56,1.33c1.8,0,2.94-.72,2.94-1.88a2.56,2.56,0,0,0-1.53-2.13c-.67-.4-.67-.4-3.18-1.73-4-2.09-5.22-3.49-5.22-5.77,0-2.9,2.43-4.86,6-4.86a11.61,11.61,0,0,1,4.72,1.08"/><path class="cls-2" d="M528.39,314.79c0-3.7-1.14-5.31-3.69-5.31a3.45,3.45,0,0,0-3.61,3,9.3,9.3,0,0,0-.16,2.33ZM520.93,319c0,3.17.71,4,3.5,4h5.3a1.39,1.39,0,1,1,0,2.77h-5.34c-2.75,0-4.2-.52-5.1-1.84a8.6,8.6,0,0,1-1.06-4.42v-5.86c0-4,2.74-6.94,6.44-6.94a6.28,6.28,0,0,1,5.61,3.45,9.52,9.52,0,0,1,.86,4.21c0,2.73-.28,3.21-1.84,3.21h-8.37Z"/><path class="cls-2" d="M550.18,324.25a1.41,1.41,0,1,1-2.82,0V301.74h-5.11a1.39,1.39,0,1,1,0-2.77h13a1.39,1.39,0,1,1,0,2.77h-5.11Z"/><path class="cls-2" d="M567,314.79c0-3.7-1.14-5.31-3.69-5.31a3.44,3.44,0,0,0-3.61,3,9.3,9.3,0,0,0-.16,2.33ZM559.56,319c0,3.17.71,4,3.49,4h5.3a1.39,1.39,0,1,1,0,2.77H563c-2.75,0-4.21-.52-5.11-1.84a8.6,8.6,0,0,1-1.06-4.42v-5.86c0-4,2.75-6.94,6.44-6.94a6.3,6.3,0,0,1,5.62,3.45,9.66,9.66,0,0,1,.86,4.21c0,2.73-.28,3.21-1.85,3.21h-8.36Z"/><path class="cls-2" d="M582.84,306.68a1.44,1.44,0,0,1,1.45,1.36,1.51,1.51,0,0,1-1.49,1.41h-3.18c-2.44,0-3.26.92-3.26,3.61v6.3c0,2.69.82,3.61,3.26,3.61h3.26a1.47,1.47,0,0,1,1.41,1.4c0,.85-.67,1.37-1.72,1.37h-3.19c-3.8,0-5.73-2.05-5.73-6.18v-6.7c0-4.14,1.93-6.18,5.73-6.18Z"/><path class="cls-2" d="M595.44,306.68c2.32,0,3.69.56,4.71,1.92.79,1,1.14,2.61,1.14,5v10.67a1.36,1.36,0,0,1-1.38,1.49,1.35,1.35,0,0,1-1.32-1.49V313.82c0-3.53-.75-4.37-3.82-4.37h-4v14.8a1.36,1.36,0,0,1-1.37,1.49,1.39,1.39,0,0,1-1.34-1.37V300.46a1.36,1.36,0,1,1,2.71,0v6.22Z"/><path class="cls-2" d="M609.53,324.25a1.36,1.36,0,1,1-2.7,0v-15.6c0-1.53.5-2,2.35-2h5.07c4.16,0,5.84,2,5.84,6.9v10.67a1.36,1.36,0,1,1-2.71,0V313.82c0-3.49-.78-4.38-3.8-4.38h-4.05Z"/><path class="cls-2" d="M627.32,317.59c0,3.41,1.45,5.34,4,5.34s4-1.93,4-5.34v-2.65c0-3.61-1.33-5.46-4-5.46s-4,1.85-4,5.46Zm-2.71-3.53c0-4.41,2.71-7.38,6.71-7.38s6.75,3,6.75,7.38v4.3c0,4.41-2.71,7.38-6.71,7.38s-6.75-3-6.75-7.38Z"/><path class="cls-2" d="M642.71,300.46A1.35,1.35,0,0,1,644,299a1.36,1.36,0,0,1,1.38,1.49V319.8c0,2.29.19,2.65,2,3.61a1,1,0,0,1,.54,1c0,.85-.46,1.37-1.21,1.37a4.4,4.4,0,0,1-3.11-1.64,6.18,6.18,0,0,1-.93-3.86Z"/><path class="cls-2" d="M653.5,317.59c0,3.41,1.45,5.34,4,5.34s4-1.93,4-5.34v-2.65c0-3.61-1.34-5.46-4-5.46s-4,1.85-4,5.46Zm-2.71-3.53c0-4.41,2.71-7.38,6.71-7.38s6.76,3,6.76,7.38v4.3c0,4.41-2.71,7.38-6.71,7.38s-6.76-3-6.76-7.38Z"/><path class="cls-2" d="M674.58,309.45c-2.44,0-3.49,1.08-3.49,3.61v6.3c0,2.53,1,3.61,3.49,3.61h4.36V309.45Zm0,16.29c-4.35,0-6.16-1.81-6.16-6.18v-6.7q0-3.32,1.41-4.7a6.58,6.58,0,0,1,4.6-1.48h4.55c2.24,0,2.71.4,2.71,2.36v18.51c0,4.49-1.73,6.25-6.17,6.25h-5.69a1.39,1.39,0,1,1,.12-2.76h5.57c2.83,0,3.46-.72,3.46-4.09v-1.21Z"/><path class="cls-2" d="M685.57,308.56a1.57,1.57,0,0,1-.11-.52,1.4,1.4,0,0,1,1.37-1.4,1.34,1.34,0,0,1,1.3,1l4,12.12L696,307.68a1.36,1.36,0,0,1,1.29-1,1.4,1.4,0,0,1,1.37,1.4,2,2,0,0,1-.07.52l-7,20.83c-1.06,3.17-2.2,4.34-4.28,4.34-1.14,0-1.88-.53-1.88-1.33a1.23,1.23,0,0,1,1.09-1.2c1.81-.36,1.89-.44,2.4-2.21l1.76-5.46Z"/></g></svg>