<svg id="Слой_1" data-name="Слой 1" xmlns="http://www.w3.org/2000/svg" viewBox="0 0 841.89 595.28"><defs><style>.cls-1{fill:#003f7a;}</style></defs><title>1</title><g id="Слой_20" data-name="Слой 20"><path class="cls-1" d="M539.15,217.54V319.41l.13,4.24c0,9.81-8.5,17.77-18.2,17.77a18,18,0,0,1-17.89-17.77l-.28-4.24V217.54h-41v63.22H434.2a95.92,95.92,0,0,1,0,33.85h27.69v9c0,32.76,26.56,59.32,58.95,59.32a59.53,59.53,0,0,0,59.28-59.32V217.54Z"/><path class="cls-1" d="M426.3,280.76h-80v.06a16.92,16.92,0,0,0,.14,33.84c.32,0,.62,0,.94-.05H383.1c-6,15.77-20.32,26.84-38.27,26.84-23.86,0-41.63-19.57-41.63-43.72S321,254,344.83,254a40.11,40.11,0,0,1,34.43,19.1l33.2-25a82.13,82.13,0,0,0-67.63-35.43c-46.44,0-83.12,38.06-83.12,85s36.68,85,83.12,85,83.1-38.08,83.1-85a88.69,88.69,0,0,0-1.63-17"/></g></svg>