<svg id="Слой_1" data-name="Слой 1" xmlns="http://www.w3.org/2000/svg" viewBox="0 0 841.89 595.28"><defs><style>.cls-1{fill:#27a8e0;}.cls-2{fill:#4dc2ef;}.cls-3{fill:#1d1d1b;}</style></defs><title>1</title><g id="Слой_6" data-name="Слой 6"><path class="cls-1" d="M445.06,267.28h25.09l-15.28,60.58H429.76Zm122.87,0H593l-15.3,60.58H552.65Zm-83.27,0h25.1l-5.12,20.26,22.69-20.26h24.73L519.87,296l22.57,31.83H514.07l-14.45-20.38-5.15,20.38H469.38Zm172.37,0h16.53l-15.28,60.58H630.69l-13.13-34.37-8.67,34.37H592.36l15.25-60.45,27.14-.13,13.41,35.11Zm-275.16,0h27.8l11.15,60.58H395.73l-1.83-9.92H367.56l-5.5,9.92H348.23Zm5.48,15-11.22,20.2h14.93Zm-83.61-.73h7.34c7.57,0,14.59,2.22,13.41,14.32-1.08,11-7.7,19.83-23.62,19.83h-5.75ZM267,327.86h46.4c16.18,0,36.05-11.46,36.05-33.63,0-16.15-9.11-27-30.17-27h-37"/><polygon class="cls-2" points="168.29 244.04 282.44 244.04 168.29 351.64 168.29 244.04"/><polygon class="cls-3" points="225.35 244.04 168.3 244.04 168.3 297.84 225.35 244.04"/></g></svg>