<svg id="Слой_1" data-name="Слой 1" xmlns="http://www.w3.org/2000/svg" xmlns:xlink="http://www.w3.org/1999/xlink" viewBox="0 0 841.89 595.28"><defs><style>.cls-1{fill:none;clip-rule:evenodd;}.cls-2{clip-path:url(#clip-path);}.cls-3{fill:url(#Безымянный_градиент_2);}.cls-4{fill:#025697;}</style><clipPath id="clip-path"><path class="cls-1" d="M563,274.58c-.92.9-.06,3.07.14,3.56a18.1,18.1,0,0,1,4,.67,1.32,1.32,0,0,0,.79-.27c.78-.58,1.52-1.37,1.51-1.9,0-1.25-1.55-2.7-4.44-2.86h-.32A1.84,1.84,0,0,0,563,274.58Zm-13,9.42a3.77,3.77,0,0,0-.48-2.68,7.87,7.87,0,0,0-3.09-2.64,1.79,1.79,0,0,1-1.07-1.5,5,5,0,0,1,1.93-3.54,5.84,5.84,0,0,0,3.65,1c2.48,0,3.69.72,4.26,1.57-.16,4.86-2.64,8.4-4.6,8.4h0C550.23,284.57,550,284.32,550.06,284Zm118.56-32.8c-.06,2.69-2.57,5-3.62,6.26-3.38,4-6.57,5.29-6.72,9.28a22,22,0,0,1-1.11,4.85c-.13.41.24.35.49.2,2.11-1.16,5.11-1.45,8-2.85a29.37,29.37,0,0,0,5.14-2.85c.18-.11.2-.37-.29-.43-1.27-.16-3.48-.64-3.61-2.19a6.17,6.17,0,0,1,1.69-4.91c.93-1.05,2.59-2.61,2.66-4.08.15-2.68-1.14-3.29-2.35-3.29ZM541.79,349.35h27.84a92,92,0,0,0,10.85-12.76s-1.34.28-3.36.56a48.53,48.53,0,0,1-9.71.47s8.05-1.43,19.56-9.37c8.92,2.36,17.47-1.93,24.53-6.22,7.85-4.76,13.86-9.53,16.49-5.17.15.24.51,0,.61,0,15.14-10.28,21.08-23.33,31.69-32.39,4.75-4.06,5.69-5.75,13.93-7.95,2.3-.61,2.55-1.5,3.33-2.4,1.06-1.25,2.61-.13,3.72-2.1.45-.78,0-2,2.22-2.42s2.49-2.56,3.56-3.75c2.81-3.12,2.46-2.92,4.88-5.51.9-1,4.56-5.5,4.91-6.2.51-1,1.78-4.36,3.38-6.24.58-.67.74-1.18.65-1.53h-3.26a7.49,7.49,0,0,0-2.14,2.09c-.28.58-1.52,2.6-2.06,3.93a20.61,20.61,0,0,0-2,2,21,21,0,0,0-2,2.44,63.09,63.09,0,0,1-2.48,5.92c.27-1.75,1.91-6.5,2-7.36a17,17,0,0,0-.31-4c-.09-.94-.17-1.88-.17-2.82a18.54,18.54,0,0,0,.06-2.21h-2.4a4.09,4.09,0,0,0-1.2,2.3c-.28,1.43.07,4-.12,6.73,0,.63-.59,1.58-.94,3.31a65.12,65.12,0,0,1-1.64,7c.11-.76.82-5.28,1-7.15s-1.53-7.74-1.65-8.68c-.09-.75-.38-1-.77-1-1.4-.14-2.8,2-2.35,4.84.14.86,1.22,3.32,1.12,4.73s-.79,2.85-.86,3.66c-.15,2-.24,4.68-.49,5.92a60.71,60.71,0,0,0-.24-7c-.06-.75-1.59-4.22-2.32-6.18-.31-.84-.89-.88-1.29-.67-1.65.82-1.72,3.67-1.4,5,.19.77,1.22,2.86,1.63,4.62-1.06,8.26-2.86,8.84-2.86,8.84a6.66,6.66,0,0,1-2.74.85c-3.75.62-10.32,2.47-12.14.5a.57.57,0,0,0-.73-.11c-.57.44-5.34,4.57-8.23,6.76-9.21,7-15.58,8.89-22.87,13.91C616.5,307.7,608.61,312.15,598.2,315c-4.48,1.24-8.93,1.14-9.76-1.22-2-5.68,5.39-8.63,10.58-9.48.28-.05.29-.45,0-.6a18.3,18.3,0,0,0-8.95-2c-26.16-.65-50.52,30.54-48.31,47.48C541.78,349.25,541.79,349.3,541.79,349.35Zm-83.23,0H527.4c2-18.39,25.93-41.1,44.59-47.18.5-.19.5-.46,0-.41a62.13,62.13,0,0,0-19.65,6.06,3.06,3.06,0,0,1-.46-1.95c0-1.93.51-4.83,2.49-4.77a10.74,10.74,0,0,0,7.58-2.77s-7.33-.93-6.72-4a1.31,1.31,0,0,1,1.64-1.24,3.33,3.33,0,0,0,3.74-1.75,14.32,14.32,0,0,1-3.78-1.47c-.24-.17-.55-.46-.17-.85a1.59,1.59,0,0,1,1.7-.62,16.89,16.89,0,0,0,4.27.67c.47,0,.76-.35.38-.54-.82-.4-2-1.63-3.47-2.3a15.09,15.09,0,0,0,3.86-3.47,2.9,2.9,0,0,1-1.89-.31c-1.51-.64-1.48-8-2.45-9.54a12.18,12.18,0,0,0-4.7-4.12c-1.75-.77-3.43-1-4.26-1.88-1.42-1.53,1.06-11-9.12-11-6.38,0-10.65,5-11.62,10.09a13,13,0,0,0-.06,3.71,6.29,6.29,0,0,1,7.24,4.25,9.14,9.14,0,0,0-3.61-2.44,3.07,3.07,0,0,0-3.72,2.74c-1,5.3,4.45,9.82,5,10.35-1.08,10.69,3.52,17.47,3.95,26,.29,5.5-3.64,7.8-4.31,8.48-4.47,4.48-5.67,6.45-7,10.21a24,24,0,0,1,3.41-11.17c.19-.32.18-.78-.47-.43-2,1.08-6.13,3.42-7.54,4.83-1.79,1.79-3.53,3.59-5,5.37a41,41,0,0,0-11.67,6.06c-4.27,3-6.91,8.64-6.91,8.64a70.18,70.18,0,0,0-10.87.15C477,343.58,464,347.57,458.56,349.35Z"/></clipPath><linearGradient id="Безымянный_градиент_2" x1="460.35" y1="358.7" x2="696.68" y2="238.25" gradientUnits="userSpaceOnUse"><stop offset="0" stop-color="#005697"/><stop offset="0.34" stop-color="#005697"/><stop offset="0.93" stop-color="#0092cf"/><stop offset="1" stop-color="#0092cf"/></linearGradient></defs><title>1</title><g id="Слой_4" data-name="Слой 4"><g class="cls-2"><rect class="cls-3" x="458.56" y="246.33" width="242.41" height="103.02"/></g><path class="cls-4" d="M232.2,314.23h27.41c2.41,0,4-1.76,4-4.32v-2.18a35.31,35.31,0,0,1-7,.44h-9l15.7-30.23H232.42v6h13.81l-13.15,25a6.79,6.79,0,0,0-.88,5.34"/><path class="cls-4" d="M204.86,295,212,308.61c2,3.94,2.85,5.62,7.33,5.62h10.11c-.58-.44-1.1-1.39-2.12-3.22L217,292,229,277.94H218.27Z"/><path class="cls-4" d="M191.6,314.23h12.53V270.84c0-4.51-3.3-7.44-7.84-7.44H191.6Z"/><path class="cls-4" d="M186,310.94,173.5,273.7c-1.47-4.45-3-6.49-9.16-6.49H158.4l-17.43,47h7.91l4-11.62h16.79l2.39,7.52c.89,2.78,2,4,5,4h10.55a9.11,9.11,0,0,1-1.54-3.21m-31.22-14,6.74-19.68,6.28,19.68Z"/><path class="cls-4" d="M284.83,315.1c10.4,0,19.26-7.44,19.26-19.79,0-10.51-8.43-18.32-19-18.32s-19.35,7.66-19.35,20c0,10.87,8.8,18.1,19.14,18.1m.14-6.71c-4.25,0-5.8-4.9-5.8-12.58,0-7.28,1.48-12.26,5.8-12.26s5.63,5.26,5.63,12.92C290.6,303.72,289.22,308.39,285,308.39Z"/><path class="cls-4" d="M309.72,314.23h7.84v-30l19.94,23.92c2.79,3.36,4.62,6.06,7.63,6.06h5.71V271.15a3.91,3.91,0,0,0-4.24-4.08h-3.46v28.36L324,272.61c-2.87-3.43-4.32-5.54-8.5-5.54h-5.77Z"/><path class="cls-4" d="M375.4,315.1c10.4,0,19.27-7.44,19.27-19.79,0-10.5-8.44-18.32-19.06-18.32s-19.34,7.66-19.34,20c0,10.87,8.78,18.1,19.13,18.1m.14-6.71c-4.26,0-5.79-4.9-5.79-12.57,0-7.29,1.46-12.27,5.79-12.27s5.64,5.27,5.64,12.94C381.18,303.72,379.78,308.39,375.54,308.39Z"/><path class="cls-4" d="M476.68,296.77a30,30,0,0,0,.28-4.23c0-8.62-6.37-15.47-17.28-15.47s-18.77,7.58-18.77,19.12c0,11.18,7,18.91,18.32,18.91s15.46-5.91,15.69-11.61c-2.43,1.77-6.16,2.78-10.34,2.78-6.34,0-10.46-3.62-11.05-9.5Zm-23.15-5c.4-5.33,2.46-8.7,6-8.7,4.84,0,5.8,8.7,5.8,8.7Z"/><path class="cls-4" d="M422.08,277.42c-4.26,0-7.77,1.53-9.53,3.29v-9.86c0-4.53-3.23-7.44-7.76-7.44h-4.7v50.82h14.66c14,0,21.76-7.29,21.76-20.89,0-9.13-6.21-15.92-14.43-15.92m-7.63,30.75h-1.9V284.73a23.25,23.25,0,0,1,2.71-.15c4.77,0,8.36,4.39,8.36,10.23C423.62,303.49,420.32,308.17,414.45,308.17Z"/><path class="cls-4" d="M482.19,314.23h12.46V270.85c0-4.52-3.29-7.44-7.83-7.44h-4.63Z"/></g></svg>