<svg id="Слой_1" data-name="Слой 1" xmlns="http://www.w3.org/2000/svg" viewBox="0 0 841.89 595.28"><defs><style>.cls-1{fill:#393185;}</style></defs><title>1</title><g id="Слой_7" data-name="Слой 7"><path class="cls-1" d="M391,306l6.38,17.12-13.13,0Zm12,31.55c14.84.35,57.23,3.93,62.15-7.89,9.1-21.85-27.61-14.59-33.48-18-7.71-4.42,1.71-6.77,7.44-6.8,14.07-.07,3.17,6.48,25.6,4.17.63-11.66-9.2-12.33-19.88-13.2-43.2-3.52-36.41,21.82-20.54,24.1,6.09.87,27.34-2.19,25.09,6.76-2.4,3-8.05,3.09-13,2.65-7.59-.67-6.32-3.61-10.21-5.07l-13.45,0-11.68-29c-2.08.85-17,.37-20.34.38l-13,29.49V295.8c-19.15-1.52-14,1.21-34.7,19.87L332.78,296c-18.47-4.32-23.39,9.52-31.33,17.05-8.67,8.23-17.29,16.51-23.76,24.38,17.34,1.12,14.85.32,23.68-8.6,5.11-5.16,12.64-13.29,16.81-16.22l0,24.76,3.41.18c12.27.33,21.62-18.45,31.65-25.3l0,25.31,25.49,0,3-7,18.62-.07Z"/><polygon class="cls-1" points="514.37 305.85 514.35 337.56 557.35 337.55 557.32 328.8 529.91 328.78 529.85 320.15 555.3 320.15 555.31 312.94 529.92 312.92 529.85 305.84 556.91 305.88 556.96 295.64 466.77 295.95 466.76 305.75 482.02 306.11 481.96 337.62 497.32 337.36 497.3 305.84 514.37 305.85"/><path class="cls-1" d="M240.81,288.33c5.41,3.86,14.2,17.71,23.05,17.47,8.65-.23,16.65-13.63,22.68-17.76l8.26,9.07L263.17,328.2c-5.82-7.25-28.68-26.28-31.19-31.94Zm1.33-1c3-6.78,16.32-15.4,20.69-22.12,2.46,1.14,20.63,19.55,21.92,21.84-8.3,7.12-14.19,17.29-21.52,17C254.93,303.8,248.6,291.17,242.14,287.33Zm17.56-29.22c-5.5,2.41-15.83,14.21-20.4,18.77-4.08,4.08-18.46,14.22-14.58,24,1.48,3.74,15.81,16.56,19.13,19.89,3.92,3.91,14.37,18.8,23.87,14.88,3.53-1.46,16-15.4,20-19.05,6-5.5,18.34-14.7,14.63-23.94-1.41-3.51-14.75-15.72-18.9-20.1C277.42,266.23,268.39,254.29,259.7,258.11Z"/><path class="cls-1" d="M577.9,306.14a91.51,91.51,0,0,1,14.08-.26c8.3.59,10.13,15.79-14.12,10.52Zm-.4,31.36c1.31-2.43.61-7.84.59-10.72l12.15.22c10.44,5.39,3.37,13.74,27.56,10.23l-16.09-15.88c18-1.61,13-21.21,4-24.24-5-1.7-37-2.15-43.07-1.19l0,41.6Z"/><path class="cls-1" d="M243.33,292.45c-.6,9.12-1.21,10.81,3.26,15.5A23.8,23.8,0,0,0,258.35,315c13.25,3,18.34-4,25.75-10.28l-.1-12.55c-5,3.91-11.46,14.81-20.84,14.59-8.92-.22-14.46-10.82-19.83-14.31"/><path class="cls-1" d="M274.72,282.86c-3.75,2.41-7.57,8.77-11.56,10.23L258,288c4.14-6.84,5.34.3,4.92-17.25-2.39,1.36-9.23,8.11-11.21,10.52-5.27,6.39-1.94,10.94,2.18,15.06,3.17,3.17,8.38,9.34,15.27,3.86,6.46-5.12,6.27-6.14,5.61-17.37"/><path class="cls-1" d="M312.34,266.71a8.88,8.88,0,0,1,4.27,1.12,8,8,0,0,1,3.25,3.21,8.69,8.69,0,0,1,0,8.66,8,8,0,0,1-3.21,3.22,8.69,8.69,0,0,1-8.64,0,8,8,0,0,1-3.21-3.22,8.69,8.69,0,0,1,0-8.66,8,8,0,0,1,3.25-3.21,8.88,8.88,0,0,1,4.27-1.12m0,1.43a7.43,7.43,0,0,0-3.56.94,6.72,6.72,0,0,0-2.71,2.68,7.22,7.22,0,0,0,0,7.23,6.86,6.86,0,0,0,2.69,2.68,7.23,7.23,0,0,0,7.2,0,6.8,6.8,0,0,0,2.69-2.68,7.29,7.29,0,0,0,0-7.23,6.66,6.66,0,0,0-2.71-2.68A7.49,7.49,0,0,0,312.34,268.14Zm-3.81,12v-9.33h3.21a8,8,0,0,1,2.39.26,2.45,2.45,0,0,1,1.61,2.27,2.46,2.46,0,0,1-.73,1.78,2.93,2.93,0,0,1-1.95.85,2.49,2.49,0,0,1,.8.5,10.77,10.77,0,0,1,1.38,1.85l1.13,1.82h-1.82l-.83-1.47a7.54,7.54,0,0,0-1.59-2.17,2,2,0,0,0-1.2-.32H310v4Zm1.51-5.25h1.83a3,3,0,0,0,1.79-.39,1.26,1.26,0,0,0,.48-1,1.3,1.3,0,0,0-.23-.74,1.35,1.35,0,0,0-.64-.48,4.62,4.62,0,0,0-1.52-.17H310Z"/></g></svg>