<svg id="Слой_1" data-name="Слой 1" xmlns="http://www.w3.org/2000/svg" viewBox="0 0 841.89 595.28"><defs><style>.cls-1{fill:#3b494b;}.cls-2{fill:#e23211;}</style></defs><title>1</title><g id="Слой_19" data-name="Слой 19"><path class="cls-1" d="M391,353.83H366.91l-9.56-25.35H313.57l-9,25.35H281.07l42.66-111.62h23.38Zm-40.72-44.16-15.09-41.42-14.79,41.42Z"/><polygon class="cls-1" points="402.99 353.83 402.99 242.21 425.1 242.21 425.1 291.78 469.78 242.21 499.52 242.21 458.28 285.69 501.76 353.83 473.15 353.83 443.04 301.45 425.1 320.1 425.1 353.83 402.99 353.83"/><path class="cls-1" d="M513.19,353.83V242.21h35.48q20.18,0,26.3,1.67a28.69,28.69,0,0,1,15.77,11q6.35,8.39,6.35,21.7,0,10.27-3.66,17.28a30.78,30.78,0,0,1-9.34,11,31.77,31.77,0,0,1-11.43,5.26q-7.93,1.59-22.94,1.59H535.3v42.11Zm22.11-92.74v31.68h12.11q13.07,0,17.48-1.75a14.37,14.37,0,0,0,6.87-5.48,15,15,0,0,0,2.54-8.68,14.63,14.63,0,0,0-3.51-10.06,15.27,15.27,0,0,0-8.89-4.94q-4-.76-15.91-.77Z"/><path class="cls-1" d="M703.2,353.83H679.15l-9.57-25.35H625.8l-9,25.35H593.31L636,242.21h23.38Zm-40.72-44.16-15.09-41.42L632.6,309.67Z"/><path class="cls-2" d="M190.73,245.93a3.69,3.69,0,0,1,3.65-3.72H204.8a3.68,3.68,0,0,1,3.64,3.72V350a3.68,3.68,0,0,1-3.64,3.72H194.38a3.69,3.69,0,0,1-3.65-3.72Z"/><path class="cls-2" d="M212.17,245.93a3.69,3.69,0,0,1,3.65-3.72h10.42a3.69,3.69,0,0,1,3.65,3.72V350a3.69,3.69,0,0,1-3.65,3.72H215.82a3.69,3.69,0,0,1-3.65-3.72Z"/><path class="cls-2" d="M163.62,335.77h19.62a3.69,3.69,0,0,1,3.65,3.72v10.62a3.68,3.68,0,0,1-3.65,3.72H141.41s-4.06,0-2.32-4.7l30.48-81.36a2.62,2.62,0,0,1,2.45-1.91h15v14.57h-2.92Z"/><path class="cls-2" d="M256.9,260.27H237.28a3.68,3.68,0,0,1-3.65-3.72V245.93a3.69,3.69,0,0,1,3.65-3.72h41.83s4.06,0,2.32,4.7L251,328.27a2.6,2.6,0,0,1-2.45,1.91h-15V315.61h2.92Z"/><path class="cls-1" d="M691.44,262.83a9.87,9.87,0,0,1-7.29-3.07,10.34,10.34,0,0,1-3-7.44,10.21,10.21,0,0,1,3-7.4,10.17,10.17,0,0,1,14.56,0,10.17,10.17,0,0,1,3,7.4,10.3,10.3,0,0,1-3,7.44,9.84,9.84,0,0,1-7.27,3.07m0-2a7.93,7.93,0,0,0,5.9-2.47,8.33,8.33,0,0,0,2.45-6.06,8.21,8.21,0,0,0-2.45-6,7.87,7.87,0,0,0-5.9-2.49,8,8,0,0,0-5.94,2.49,8.22,8.22,0,0,0-2.42,6,8.34,8.34,0,0,0,2.42,6.06A8,8,0,0,0,691.44,260.85Zm2.43-7.59,2.69,4.77H694l-2.48-4.77h-2.18V258h-2.18V246.72h5.39a6.21,6.21,0,0,1,3,.53,3.21,3.21,0,0,1,1.29,2.93C696.88,252.09,695.87,253.11,693.87,253.26Zm-4.5-1.7h3.26c1.4,0,2.1-.57,2.1-1.7a1.27,1.27,0,0,0-.92-1.32,5.65,5.65,0,0,0-1.75-.19h-2.69Z"/></g></svg>