<svg id="Слой_1" data-name="Слой 1" xmlns="http://www.w3.org/2000/svg" viewBox="0 0 841.89 595.28"><defs><style>.cls-1,.cls-2{fill:#1c75bc;}.cls-1{fill-rule:evenodd;}</style></defs><title>1</title><g id="Слой_8" data-name="Слой 8"><path class="cls-1" d="M575.81,297.54l0,5.43c0,2.58-1.53,10.63-12.12,10.65-6.12,0-5.76-5.89-5.76-6.42a6.19,6.19,0,0,1,4.7-5.94c5.2-1.6,8.72-1.41,13.16-3.72m-29.45-9.42c0-9.94,6.62-17.49,21.21-17.51,16.62,0,21,8,21,14.58l0,29.92a5,5,0,0,0,2.71,4.82v1.79l-14.22,0a30.91,30.91,0,0,1-1.08-6.06A20.17,20.17,0,0,1,560,323.06c-11.1,0-15.73-7.6-15.37-14.72s2.66-12,10.68-14.78c2.33-.81,11.23-2,12.76-2.23s7.52-.75,7.52-4.72S572,281,567.48,281s-8.53,1.62-8.52,7.08Z"/><polygon class="cls-1" points="498.52 254.54 522.07 296.51 522.1 321.82 536.15 321.79 536.11 296.21 558.29 254.44 542.36 254.47 529.26 283.72 515.28 254.51 498.52 254.54"/><rect class="cls-2" x="473.41" y="254.56" width="13.14" height="67.32" transform="matrix(1, 0, 0, 1, -0.44, 0.73)"/><path class="cls-1" d="M398.3,258.77l0,13.42h-6.91v9.21h6.92s0,28.61,0,31.46c0,.22.07,6.54,5.58,8.61,4.36,1.64,12.72,1,15.57.78l0-9.77a31.66,31.66,0,0,1-5.5-.15,3,3,0,0,1-2.52-2.65c0-5.13,0-28.3,0-28.3l8,0,0-9.2h-8l0-13.41Z"/><polygon class="cls-2" points="646.83 271.82 646.9 321.63 660.04 321.62 660.04 320.04 659.97 271.8 646.83 271.82"/><path class="cls-1" d="M454.3,297.72v5.43c0,2.57-1.52,10.63-12.11,10.65-6.11,0-5.76-5.88-5.76-6.42a6.19,6.19,0,0,1,4.7-5.94c5.21-1.61,8.73-1.41,13.16-3.72m-29.44-9.42c0-9.94,6.62-17.49,21.2-17.51,16.62,0,21,8,21,14.57l.05,29.92a5,5,0,0,0,2.7,4.83v1.78l-14.22,0a30.91,30.91,0,0,1-1.08-6.06,20.17,20.17,0,0,1-16.08,7.38c-11.09,0-15.73-7.6-15.37-14.72s2.66-12,10.68-14.79c2.33-.8,11.24-2,12.76-2.22s7.52-.75,7.52-4.73-3.55-5.58-8.06-5.57-8.52,1.63-8.52,7.07Z"/><path class="cls-1" d="M391.25,300.35a39.13,39.13,0,0,0,.18-4c0-13.82-7.18-25.43-23.7-25.41s-23.64,11.66-23.62,25.48c0,15.42,7.14,27,23.68,27S389.89,313,391,307.08l-13.36,0c-1,3.55-4.86,5.78-8.57,5.79-8.65,0-11.19-5.05-11.78-12.48ZM357.5,292c1-4.93,3-10.31,10.17-10.32,5.65,0,9.5,3.36,10.12,10.29Z"/><polygon class="cls-1" points="340.49 254.77 319.57 254.8 306.9 301.16 294.11 254.83 273.17 254.87 273.26 322.19 286.4 322.17 286.33 276.35 298.98 322.15 314.88 322.13 327.4 276.3 327.47 322.11 340.58 322.08 340.49 254.77"/><polygon class="cls-2" points="181.82 263.97 190.77 254.98 190.86 313.33 249.21 313.25 240.24 322.24 181.9 322.32 181.82 263.97"/><polygon class="cls-2" points="204.31 299.85 249.19 299.78 240.23 308.76 195.35 308.83 195.28 263.96 204.24 254.96 204.31 299.85"/><polygon class="cls-2" points="222.21 263.92 231.17 254.93 231.2 272.87 249.15 272.85 240.19 281.84 222.23 281.87 222.21 263.92"/><polygon class="cls-2" points="208.74 263.94 217.71 254.94 217.75 286.36 249.17 286.31 240.2 295.3 208.79 295.36 208.74 263.94"/><path class="cls-1" d="M575.81,297.54l0,5.43c0,2.58-1.53,10.63-12.12,10.65-6.12,0-5.76-5.89-5.76-6.42a6.19,6.19,0,0,1,4.7-5.94c5.2-1.6,8.72-1.41,13.16-3.72m-29.45-9.42c0-9.94,6.62-17.49,21.21-17.51,16.62,0,21,8,21,14.58l0,29.92a5,5,0,0,0,2.71,4.82v1.79l-14.22,0a30.91,30.91,0,0,1-1.08-6.06A20.17,20.17,0,0,1,560,323.06c-11.1,0-15.73-7.6-15.37-14.72s2.66-12,10.68-14.78c2.33-.81,11.23-2,12.76-2.23s7.52-.75,7.52-4.72S572,281,567.48,281s-8.53,1.62-8.52,7.08Z"/><polygon class="cls-1" points="498.52 254.54 522.07 296.51 522.1 321.82 536.15 321.79 536.11 296.21 558.29 254.44 542.36 254.47 529.26 283.72 515.28 254.51 498.52 254.54"/><rect class="cls-2" x="473.41" y="254.56" width="13.14" height="67.32" transform="matrix(1, 0, 0, 1, -0.44, 0.73)"/><path class="cls-1" d="M398.3,258.77l0,13.42h-6.91v9.21h6.92s0,28.61,0,31.46c0,.22.07,6.54,5.58,8.61,4.36,1.64,12.72,1,15.57.78l0-9.77a31.66,31.66,0,0,1-5.5-.15,3,3,0,0,1-2.52-2.65c0-5.13,0-28.3,0-28.3l8,0,0-9.2h-8l0-13.41Z"/><polygon class="cls-2" points="646.83 271.82 646.9 321.63 660.04 321.62 660.04 320.04 659.97 271.8 646.83 271.82"/><path class="cls-1" d="M594.89,271.9l12.27,0v7.57c3.46-5.32,8.06-8.91,15.22-8.92,11.54,0,20.92,9.79,20.94,26.14,0,14.49-8.48,26.28-20.87,26.29-6.74,0-10.91-2.95-14.36-7.1l0,25.35-13.14,0Zm12.42,25.92c0-7.61,2.86-15.9,11.05-15.92,7,0,11.32,5.68,11.34,15.09,0,8.35-3.38,15.12-11.3,15.13S607.32,305,607.31,297.82Z"/><path class="cls-1" d="M454.3,297.72v5.43c0,2.57-1.52,10.63-12.11,10.65-6.11,0-5.76-5.88-5.76-6.42a6.19,6.19,0,0,1,4.7-5.94c5.21-1.61,8.73-1.41,13.16-3.72m-29.44-9.42c0-9.94,6.62-17.49,21.2-17.51,16.62,0,21,8,21,14.57l.05,29.92a5,5,0,0,0,2.7,4.83v1.78l-14.22,0a30.91,30.91,0,0,1-1.08-6.06,20.17,20.17,0,0,1-16.08,7.38c-11.09,0-15.73-7.6-15.37-14.72s2.66-12,10.68-14.79c2.33-.8,11.24-2,12.76-2.22s7.52-.75,7.52-4.73-3.55-5.58-8.06-5.57-8.52,1.63-8.52,7.07Z"/><path class="cls-1" d="M391.25,300.35a39.13,39.13,0,0,0,.18-4c0-13.82-7.18-25.43-23.7-25.41s-23.64,11.66-23.62,25.48c0,15.42,7.14,27,23.68,27S389.89,313,391,307.08l-13.36,0c-1,3.55-4.86,5.78-8.57,5.79-8.65,0-11.19-5.05-11.78-12.48ZM357.5,292c1-4.93,3-10.31,10.17-10.32,5.65,0,9.5,3.36,10.12,10.29Z"/><polygon class="cls-1" points="340.49 254.77 319.57 254.8 306.9 301.16 294.11 254.83 273.17 254.87 273.26 322.19 286.4 322.17 286.33 276.35 298.98 322.15 314.88 322.13 327.4 276.3 327.47 322.11 340.58 322.08 340.49 254.77"/><polygon class="cls-2" points="181.82 263.97 190.77 254.98 190.86 313.33 249.21 313.25 240.24 322.24 181.9 322.32 181.82 263.97"/><polygon class="cls-2" points="204.31 299.85 249.19 299.78 240.23 308.76 195.35 308.83 195.28 263.96 204.24 254.96 204.31 299.85"/><polygon class="cls-2" points="222.21 263.92 231.17 254.93 231.2 272.87 249.15 272.85 240.19 281.84 222.23 281.87 222.21 263.92"/><polygon class="cls-2" points="208.74 263.94 217.71 254.94 217.75 286.36 249.17 286.31 240.2 295.3 208.79 295.36 208.74 263.94"/></g></svg>