<svg id="Слой_1" data-name="Слой 1" xmlns="http://www.w3.org/2000/svg" viewBox="0 0 841.89 595.28"><defs><style>.cls-1{fill:#e20528;}</style></defs><title>1</title><g id="Слой_2" data-name="Слой 2"><path class="cls-1" d="M465.66,406.29c11.14,0,13-10.9,13-21s-1.84-21.05-13-21.05-13,10.92-13,21.05,1.83,21,13,21m0,12.7c-19.83,0-31.73-13.71-31.73-33.74s11.9-33.75,31.73-33.75,31.7,13.71,31.7,33.75S485.52,419,465.66,419Z"/><path class="cls-1" d="M514.91,353.4V340.86L533,334V353.4h13.68v12.7H533v29.55c0,8.38,1.23,10.63,7.52,10.63,2,0,3.88-.24,5.82-.36v11.16c-2.07,1.05-11.79,1.91-14.28,1.91-14.18,0-17.19-7.74-17.19-21.57V366.1H502.66V353.4Z"/><path class="cls-1" d="M586.61,406.29c11.21,0,13-10.9,13-21s-1.77-21.05-13-21.05-12.9,10.92-12.9,21.05,1.83,21,12.9,21m0,12.7C566.8,419,555,405.28,555,385.25s11.82-33.75,31.63-33.75,31.71,13.71,31.71,33.75S606.52,419,586.61,419Z"/><path class="cls-1" d="M373.66,340.23h15.76c8.21.15,13.08,3.56,13.08,11.72s-4.87,12.48-13.08,12.64H373.66Zm56.22,76.7L406,376.34c10.58-5.48,16.46-15,16.46-25,0-17.77-15.31-26.3-30.32-26.41H354.8v92h18.92V379.57h12.19l21.83,37.36Z"/><polygon class="cls-1" points="704.66 416.88 685.78 416.88 467.93 188.42 250.91 416.88 137.19 416.88 366.33 176.69 475.53 176.69 704.66 416.88"/><path class="cls-1" d="M465.66,406.29c11.14,0,13-10.9,13-21s-1.84-21.05-13-21.05-13,10.92-13,21.05,1.83,21,13,21m0,12.7c-19.83,0-31.73-13.71-31.73-33.74s11.9-33.75,31.73-33.75,31.7,13.71,31.7,33.75S485.52,419,465.66,419Z"/><path class="cls-1" d="M514.91,353.4V340.86L533,334V353.4h13.68v12.7H533v29.55c0,8.38,1.23,10.63,7.52,10.63,2,0,3.88-.24,5.82-.36v11.16c-2.07,1.05-11.79,1.91-14.28,1.91-14.18,0-17.19-7.74-17.19-21.57V366.1H502.66V353.4Z"/><path class="cls-1" d="M586.61,406.29c11.21,0,13-10.9,13-21s-1.77-21.05-13-21.05-12.9,10.92-12.9,21.05,1.83,21,12.9,21m0,12.7C566.8,419,555,405.28,555,385.25s11.82-33.75,31.63-33.75,31.71,13.71,31.71,33.75S606.52,419,586.61,419Z"/><path class="cls-1" d="M373.66,340.23h15.76c8.21.15,13.08,3.56,13.08,11.72s-4.87,12.48-13.08,12.64H373.66Zm56.22,76.7L406,376.34c10.58-5.48,16.46-15,16.46-25,0-17.77-15.31-26.3-30.32-26.41H354.8v92h18.92V379.57h12.19l21.83,37.36Z"/><polygon class="cls-1" points="704.66 416.88 685.78 416.88 467.93 188.42 250.91 416.88 137.19 416.88 366.33 176.69 475.53 176.69 704.66 416.88"/></g></svg>