<svg id="Слой_1" data-name="Слой 1" xmlns="http://www.w3.org/2000/svg" viewBox="0 0 841.89 595.28"><defs><style>.cls-1{fill:#878787;}.cls-2{fill:#f7a600;}</style></defs><title>1</title><g id="Слой_12" data-name="Слой 12"><path class="cls-1" d="M189.5,221.23a20.09,20.09,0,0,1,20.23-20h39.43v20H209.73v66.6h29.33v20H209.73v86.62H189.5Z"/><path class="cls-1" d="M308.71,394.49H268.24a20.09,20.09,0,0,1-20.23-20V300.55a20.08,20.08,0,0,1,20.23-20h20.24V259.68H252.39v-20h36.09a20.1,20.1,0,0,1,20.23,20Zm-40.47-20h20.24V300.55H268.24Z"/><path class="cls-1" d="M323.47,201.2H343.7v38.45h20.23a20.08,20.08,0,0,1,20.24,20V374.45a20.1,20.1,0,0,1-20.24,20H323.47ZM343.7,374.45h20.23V259.67H343.7Z"/><path class="cls-2" d="M419.15,394.49a20.08,20.08,0,0,1-20.22-20V315.71c0-11.91,4.1-16,9-17.86-4.91-2.71-9-6.23-9-15.44V229.63a30.35,30.35,0,0,1,60.69,0v21.92H439.39V221.24H419.15v66.58h20.24V268.61h20.23v19.21H479.3v20H459.62v86.63Zm0-20h20.24v-66.6H419.15Z"/><path class="cls-1" d="M490,221.23a20.09,20.09,0,0,1,20.23-20h38.4v20h-38.4v66.6h30.35v20H510.19v86.62H490Z"/><path class="cls-1" d="M575.54,221.23H555.3v-20h20.24Zm0,174.88a22.48,22.48,0,0,1-14.22-6,19.09,19.09,0,0,1-6-14.07V239.64h20.24Z"/><polygon class="cls-1" points="607.79 317.06 584 239.64 604.78 239.64 617.91 288.91 618.46 288.91 631.58 239.64 652.36 239.64 628.57 317.06 652.36 394.49 631.58 394.49 618.46 345.22 617.91 345.22 604.78 394.49 584 394.49 607.79 317.06"/></g></svg>