<svg id="Слой_1" data-name="Слой 1" xmlns="http://www.w3.org/2000/svg" viewBox="0 0 841.89 595.28"><defs><style>.cls-1{fill:#9eabb5;}.cls-2{fill:#f39322;}</style></defs><title>1</title><g id="Слой_11" data-name="Слой 11"><polygon class="cls-1" points="273.99 209.03 273.99 170.72 416.67 170.72 416.67 209.03 370.6 209.03 370.6 321.18 321.19 321.18 321.19 209.03 273.99 209.03"/><polygon class="cls-1" points="427.46 209.03 427.46 170.72 570.14 170.72 570.14 209.03 524.05 209.03 524.05 321.18 474.65 321.18 474.65 209.03 427.46 209.03"/><polygon class="cls-2" points="275.66 367.35 275.66 344.6 268.64 344.6 268.64 341.06 290.04 341.06 290.04 344.6 283.04 344.6 283.04 367.35 275.66 367.35"/><polygon class="cls-2" points="293.58 367.35 293.58 341.06 310.04 341.06 310.04 344.6 300.96 344.6 300.96 352.25 309.57 352.25 309.57 355.79 300.96 355.79 300.96 363.82 310.53 363.82 310.53 367.35 293.58 367.35"/><path class="cls-2" d="M330.83,367.36l-7.07-13,7.84-13.33h3.88l-5.69,9.62L339,367.36ZM316,341.06h7.38v26.3H316Z"/><polygon class="cls-2" points="340.44 367.35 340.44 341.06 348.52 341.06 357.23 354.51 357.23 341.06 361.19 341.06 361.19 367.35 356.9 367.35 344.33 348.14 344.33 367.35 340.44 367.35"/><path class="cls-2" d="M369.06,335.08a2.28,2.28,0,0,1,.69-1.65,2.24,2.24,0,0,1,1.62-.7,2.3,2.3,0,0,1,1.66.7,2.35,2.35,0,0,1,0,3.32,2.32,2.32,0,0,1-1.69.67,2.27,2.27,0,0,1-2.31-2.34m6,32.28h-7.37v-26.3H375Z"/><path class="cls-2" d="M396.3,367.36l-7.08-13,7.84-13.33h3.88l-5.68,9.62,9.18,16.68Zm-14.81-26.3h7.37v26.3h-7.37Z"/><polygon class="cls-2" points="422.53 367.35 422.53 344.6 415.51 344.6 415.51 341.06 436.91 341.06 436.91 344.6 429.91 344.6 429.91 367.35 422.53 367.35"/><polygon class="cls-2" points="440.45 367.35 440.45 341.06 456.92 341.06 456.92 344.6 447.83 344.6 447.83 352.25 456.45 352.25 456.45 355.79 447.83 355.79 447.83 363.82 457.41 363.82 457.41 367.35 440.45 367.35"/><path class="cls-2" d="M465,360.67a7.82,7.82,0,0,0,2,2.93,4.09,4.09,0,0,0,2.68,1,3.52,3.52,0,0,0,2.46-.88,3,3,0,0,0,.95-2.23,3,3,0,0,0-.72-2,8.36,8.36,0,0,0-2.38-1.78l-1.05-.57a32.09,32.09,0,0,1-4.3-2.54,8.32,8.32,0,0,1-2.12-2.58,6.82,6.82,0,0,1-.62-3,8.14,8.14,0,0,1,2.55-6.2,9.24,9.24,0,0,1,6.64-2.41,9.43,9.43,0,0,1,5,1.31,8.87,8.87,0,0,1,3.39,3.76l-3,2.09a6.87,6.87,0,0,0-2-2.84,4.55,4.55,0,0,0-2.88-.94,3.15,3.15,0,0,0-2.31.87,2.85,2.85,0,0,0-.92,2.16,2.8,2.8,0,0,0,.76,1.93,11,11,0,0,0,2.92,1.92l.49.25a33.54,33.54,0,0,1,4.86,2.71,7.65,7.65,0,0,1,2.1,2.52,7,7,0,0,1,.63,3.1,8.13,8.13,0,0,1-2.69,6.31,10.12,10.12,0,0,1-7,2.44,10.84,10.84,0,0,1-5.46-1.35,9,9,0,0,1-3.61-3.84Z"/><polygon class="cls-2" points="488.96 367.35 488.96 344.6 481.94 344.6 481.94 341.06 503.33 341.06 503.33 344.6 496.33 344.6 496.33 367.35 488.96 367.35"/><polygon class="cls-2" points="506.88 367.35 506.88 341.06 523.34 341.06 523.34 344.6 514.25 344.6 514.25 352.25 522.87 352.25 522.87 355.79 514.25 355.79 514.25 363.82 523.83 363.82 523.83 367.35 506.88 367.35"/><path class="cls-2" d="M529.32,367.35V341.06h11.47c3.3,0,5.89.71,7.78,2.15a7,7,0,0,1,2.82,5.89,6.57,6.57,0,0,1-1.54,4.48,8.55,8.55,0,0,1-4.58,2.47l6.36,11.3h-8.25L537,354h1.65a6.07,6.07,0,0,0,4.06-1.16,4.53,4.53,0,0,0,1.32-3.56,4.71,4.71,0,0,0-1.37-3.73,6.37,6.37,0,0,0-4.29-1.21h-1.87v23Z"/><polygon class="cls-2" points="556.27 367.35 556.27 341.06 572.73 341.06 572.73 344.6 563.64 344.6 563.64 352.25 572.26 352.25 572.26 355.79 563.64 355.79 563.64 363.82 573.22 363.82 573.22 367.35 556.27 367.35"/><path class="cls-2" d="M399,404.58h6.49l-3.4-9.42Zm-7.49,11.12,9-26.3h7.11l9.64,26.3h-7.82l-2.78-7.77h-8.83l-2.61,7.77Z"/><path class="cls-2" d="M424.1,416a3.18,3.18,0,0,1-3.17-3.17,3,3,0,0,1,.92-2.23,3.25,3.25,0,0,1,4.51,0,3,3,0,0,1,.92,2.23,3,3,0,0,1-.92,2.25,3.09,3.09,0,0,1-2.26.92"/><path class="cls-2" d="M437,424.08v-2c1,.24,2,.42,2.83.56a13.45,13.45,0,0,0,2.05.21,3,3,0,0,0,1.75-.41,1.38,1.38,0,0,0,.57-1.21,1.43,1.43,0,0,0-.63-1.28,3.75,3.75,0,0,0-2-.41h-1V415.7h1.54v2h.57a5,5,0,0,1,3.26.91,3.64,3.64,0,0,1-.16,5.4,6.08,6.08,0,0,1-3.67.95,13.72,13.72,0,0,1-2.29-.23,26.13,26.13,0,0,1-2.79-.65M435.62,409a7.65,7.65,0,0,0,2,2.93,4.06,4.06,0,0,0,2.67,1,3.52,3.52,0,0,0,2.45-.88,2.89,2.89,0,0,0,1-2.23,3,3,0,0,0-.72-2,8.59,8.59,0,0,0-2.38-1.78l-1-.57a32.19,32.19,0,0,1-4.31-2.53,8.3,8.3,0,0,1-2.11-2.59,6.79,6.79,0,0,1-.63-3,8.21,8.21,0,0,1,2.55-6.21,9.3,9.3,0,0,1,6.64-2.41,9.5,9.5,0,0,1,5,1.31,9,9,0,0,1,3.39,3.77l-3,2.09a6.87,6.87,0,0,0-2-2.83,4.46,4.46,0,0,0-2.88-.95A3.25,3.25,0,0,0,440,393a2.88,2.88,0,0,0-.91,2.17,2.71,2.71,0,0,0,.76,1.92,10.54,10.54,0,0,0,2.92,1.93l.49.26a35.21,35.21,0,0,1,4.86,2.7,7.59,7.59,0,0,1,2.09,2.52,7,7,0,0,1,.64,3.1,8.12,8.12,0,0,1-2.7,6.32,10.14,10.14,0,0,1-7,2.43,10.71,10.71,0,0,1-5.46-1.36,8.79,8.79,0,0,1-3.61-3.83Z"/><path class="cls-2" d="M443.71,284.36l-1.73-.47-.08-.1,4.09-5.07a38.39,38.39,0,0,1-2.28,5.64m-9.46-12.48.13-.75.78.53ZM423.8,305.14a20.6,20.6,0,0,1-8.16,1.66c-4.29,0-7.7-1.22-10.26-3.7a12.68,12.68,0,0,1-3.82-9.54,15.78,15.78,0,0,1,3.09-9.07,24.37,24.37,0,0,1,9.33-7.58l18.38,22.7A35.78,35.78,0,0,1,423.8,305.14Zm-8.86-66.07a11.54,11.54,0,0,1,13.79.28,7.87,7.87,0,0,1,2.61,5.93c0,2.74-1.81,5.51-5.4,8.29L421,257.3l-4.43-5.14c-2.75-3.17-4.12-5.89-4.12-8.1A6.49,6.49,0,0,1,414.94,239.07Zm48.25,65a72.92,72.92,0,0,1-7.81-6.2,34.65,34.65,0,0,0,3.86-6.72,101.46,101.46,0,0,0,4.24-12.69l-16.33-3.73c-.24,1-.5,1.86-.77,2.75l-7.58-.09,3.4-7.44-7,1.69-.21-4,.38-2.18,5.76,2.11-1.95-6a.87.87,0,0,0,.15-.13l6.46.71L443,257.66c.3-.38.58-.76.83-1.14a1.48,1.48,0,0,0,.08-.13l5.06-.69-3.18-2.94a19.23,19.23,0,0,0,.84-2.53l3.71-1.47-3.2-1.74c0-.46.11-.9.11-1.37,0-.66,0-1.33-.1-2l2.73-2-3.18-.82a19.11,19.11,0,0,0-1.14-3.45l2.05-2.45-3.4,0a21.4,21.4,0,0,0-2-2.69l1.51-3.23-3.9.92a20.65,20.65,0,0,0-2.19-1.62l.75-4.14L434,226.44c-.54-.22-1.09-.45-1.66-.63l-.39-5-4.38,3.87-.78-.12-1.93-5.5-3.49,5.15H421L417.48,219l-1.93,5.49c-.27,0-.54.07-.8.12l-4.36-3.86-.39,4.89c-.64.2-1.25.43-1.86.66L404,224.19l.71,3.85a20.86,20.86,0,0,0-2.58,1.81l-3.47-.82,1.33,2.82a19.32,19.32,0,0,0-2.41,3.1l-2.85,0,1.74,2.09a17.93,17.93,0,0,0-1.21,3.91l-2.79.72,2.5,1.8c0,.38-.07.74-.07,1.13a20.6,20.6,0,0,0,.17,2.45L392,248.76l3.77,1.5q.36,1.2.84,2.43l-3.24,3,5,.68c.27.49.55,1,.85,1.47l-2.72,4.25,5-.55-.43,5.72-.38.22-6.87-3.67,1.31,7.41-.57.48L387.24,270l2.77,6c-.42.47-.8.94-1.16,1.42l-6.39.08,3.52,4.37a24.93,24.93,0,0,0-1.22,2.76L379.71,286l3.85,2.87a27.93,27.93,0,0,0-.46,3.81l-4,2.25,4,1.64a26.4,26.4,0,0,0,.73,4.19l-3.06,2.95,4.27.59A25.4,25.4,0,0,0,387,308l-2.36,3.84,4.83-.56c.17.2.31.4.49.59a22.94,22.94,0,0,0,1.92,1.9l-1.54,4.94,5.38-2.05c.7.44,1.41.88,2.16,1.26l-.31,6.05,5.63-4c.43.13.84.29,1.28.4l1.41,6.89,4.91-5.82.61.08,3.35,6.84,3.24-6.66c.3,0,.59,0,.88,0l4.73,5.59,1.26-6.14c.81-.14,1.58-.32,2.36-.49l4.7,3.33-.23-4.62.05,0a34.61,34.61,0,0,0,4.06-1.89l3.35,1.27-.85-2.71a42.19,42.19,0,0,0,5.59-4.26,63.48,63.48,0,0,0,15.43,10.8l10.94-13.94A58.54,58.54,0,0,1,463.19,304.07Z"/></g></svg>