<svg id="Слой_1" data-name="Слой 1" xmlns="http://www.w3.org/2000/svg" viewBox="0 0 841.89 595.28"><defs><style>.cls-1{fill:#010101;}.cls-2{fill:#831840;}.cls-3{fill:none;stroke:#010101;stroke-miterlimit:3.86;stroke-width:0.54px;}</style></defs><title>1</title><g id="Слой_13" data-name="Слой 13"><path class="cls-1" d="M234,317.62h21.38a2.49,2.49,0,0,0,1.64-.46,3.56,3.56,0,0,0,.92-1.68h.91v11.14h-.91A3.33,3.33,0,0,0,257,325a2.51,2.51,0,0,0-1.66-.48H222.68v-1a3.31,3.31,0,0,0,1.68-.88,2.45,2.45,0,0,0,.49-1.62V290.09a2.32,2.32,0,0,0-.48-1.59,3.61,3.61,0,0,0-1.69-.91v-1h13.47v1a3.45,3.45,0,0,0-1.69.9,2.44,2.44,0,0,0-.47,1.6Z"/><path class="cls-1" d="M295.64,304.12a14.78,14.78,0,0,1,4.16,2.57,8.69,8.69,0,0,1,2.51,6.56,9.88,9.88,0,0,1-4.22,8.55q-3.73,2.67-10.31,2.67H260.65v-1a3.27,3.27,0,0,0,1.67-.88,2.45,2.45,0,0,0,.49-1.62V290.09a2.33,2.33,0,0,0-.47-1.58,3.68,3.68,0,0,0-1.69-.92v-1h26.67q7,0,10.27,2.49a8.6,8.6,0,0,1,3.47,7.23,7.53,7.53,0,0,1-1.21,4.43,12.32,12.32,0,0,1-4.21,3.34M272,300.81h13.84a9.49,9.49,0,0,0,4.63-.83,3.67,3.67,0,0,0,0-5.68,9.45,9.45,0,0,0-4.64-.82H272Zm0,16.81h14.2q6.89,0,6.88-5t-6.88-5H272Z"/><path class="cls-1" d="M317.2,308.35v9.28h24.15a2.53,2.53,0,0,0,1.61-.46,3.45,3.45,0,0,0,.9-1.69h1v11.14h-1A3.2,3.2,0,0,0,343,325a2.5,2.5,0,0,0-1.63-.49H305.89v-1a3.23,3.23,0,0,0,1.68-.87,2.47,2.47,0,0,0,.49-1.62V290.09a2.32,2.32,0,0,0-.48-1.59,3.61,3.61,0,0,0-1.69-.91v-1h34.44a2.52,2.52,0,0,0,1.65-.46,3.38,3.38,0,0,0,.91-1.68h.9v11.14h-.9a3.21,3.21,0,0,0-.91-1.68,2.46,2.46,0,0,0-1.65-.47H317.2v8.31h14.34a2.43,2.43,0,0,0,1.61-.47,3.45,3.45,0,0,0,.94-1.68H335V310.5h-.91a3.34,3.34,0,0,0-.9-1.67,2.46,2.46,0,0,0-1.65-.48Z"/><path class="cls-1" d="M359.86,308.9V321a2.39,2.39,0,0,0,.48,1.6,3.62,3.62,0,0,0,1.69.93v1H348.56v-1a3.27,3.27,0,0,0,1.67-.88,2.41,2.41,0,0,0,.49-1.62V290.09a2.35,2.35,0,0,0-.47-1.58,3.66,3.66,0,0,0-1.69-.92v-1h25a43.13,43.13,0,0,1,7.44.49,13.13,13.13,0,0,1,4.57,1.77q4.13,2.67,4.13,8.71a9.79,9.79,0,0,1-2.54,7.17q-2.55,2.58-8.22,3.73l7.27,10a22.41,22.41,0,0,0,3.17,3.76,5.69,5.69,0,0,0,2.69,1.27v1H376v-1c1.18-.32,1.77-.82,1.77-1.53a4.7,4.7,0,0,0-1.09-2.25l-7.66-10.83Zm0-6.85h13.82a12.1,12.1,0,0,0,4.66-.67,3.55,3.55,0,0,0,2.12-3.61,3.65,3.65,0,0,0-1.49-3.35q-1.5-.94-5.29-.94H359.86Z"/><path class="cls-1" d="M415.77,293.47V321a2.39,2.39,0,0,0,.48,1.6,3.5,3.5,0,0,0,1.68.92v1H404.46v-1a3.16,3.16,0,0,0,1.68-.88,2.42,2.42,0,0,0,.49-1.61V293.47H395.37a2.51,2.51,0,0,0-1.66.48,3.27,3.27,0,0,0-.9,1.67h-.91V284.48h.91a3.16,3.16,0,0,0,.87,1.66,2.48,2.48,0,0,0,1.65.48H427a2.63,2.63,0,0,0,1.66-.46,3.46,3.46,0,0,0,.9-1.68h.91v11.14h-.91a3.42,3.42,0,0,0-.9-1.67,2.51,2.51,0,0,0-1.66-.48Z"/><path class="cls-2" d="M414.8,227.29S400,238.68,345,238.68c0,5.62,17.13,35.86,16.5,40.35h75.44c5.88-6.86,16.43-14.86,36-13.07,4.87-10.47,11.64-23.74,11.64-27.27-55,0-69.79-11.39-69.79-11.39"/><path class="cls-2" d="M368.27,330.71s.34,14.63-.34,20.34c.51.51,35.82,2.94,47.49,17.33.15.16,11.3-14.68,47.39-17.39V335.18c-.63,0-8.59-.58-14.39-3.37s-12.05-9.17-12.05-9.17-6.68,8.11-23,8.11l-45.09,0"/><path class="cls-1" d="M200,310.47H174.54l-3.85,7.91a6.7,6.7,0,0,0-.79,2.6c0,1.21.93,2,2.79,2.51v1.35H154v-1.35a5,5,0,0,0,2.53-1.15,11.35,11.35,0,0,0,2-3.19l20.77-43a8,8,0,0,0,1-3.29c0-1.25-.8-2.16-2.4-2.7V268.8h20v1.34c-1.63.46-2.44,1.27-2.44,2.42a6,6,0,0,0,.78,2.7l21.5,43.15a14.41,14.41,0,0,0,2.4,3.75,5.19,5.19,0,0,0,2.77,1.33v1.35H202.06v-1.35c1.81-.3,2.72-1.15,2.72-2.55a6.77,6.77,0,0,0-.82-2.56Zm-3.53-7.64L187.43,283l-9.24,19.79Z"/><path class="cls-1" d="M487.15,308.58h-14a2.81,2.81,0,0,0-1.92.57,4.29,4.29,0,0,0-1.06,2h-1.35v-13h1.35a4.22,4.22,0,0,0,1.05,2.06,2.93,2.93,0,0,0,1.92.55H500v1.34a4.39,4.39,0,0,0-2.05,1.06,2.92,2.92,0,0,0-.58,1.94v11.48a2.87,2.87,0,0,0,.57,1.93,4.14,4.14,0,0,0,2.06,1.07v1q-16.09,9.15-31.19,9.16-13.69,0-22.34-6.45-10.89-8.15-10.88-22.61,0-13.47,9.67-21.44,9.19-7.56,24.41-7.57a45.67,45.67,0,0,1,9.12.88,62.6,62.6,0,0,1,9.74,3,13.22,13.22,0,0,0,4,1.1,3.44,3.44,0,0,0,2-.94l1.18.62-6.65,13.41-1.2-.61a4.72,4.72,0,0,0-.37-1.94,5.67,5.67,0,0,0-1.49-1.46,22.53,22.53,0,0,0-7.41-3.2,35.12,35.12,0,0,0-9.24-1.33q-8.85,0-14.69,4.93a18.46,18.46,0,0,0-6.58,14.77,17.91,17.91,0,0,0,6.43,14.35q5.89,5,15.51,5a40.59,40.59,0,0,0,9.25-1.07,30.4,30.4,0,0,0,7.88-2.93Z"/><path class="cls-1" d="M683.36,267.68a1.4,1.4,0,0,0,.93-1.42,1.36,1.36,0,0,0-.83-1.36,3,3,0,0,0-1.18-.2,1.48,1.48,0,0,0-.61.07c-.07.05-.1.16-.1.33V268a5.57,5.57,0,0,0,1.79-.27m-4,4a1.3,1.3,0,0,0,.83-.26,1.62,1.62,0,0,0,.16-.92v-5a1.23,1.23,0,0,0-.18-.8,1.42,1.42,0,0,0-.81-.24v-.21h3.22a5,5,0,0,1,1.67.25,1.77,1.77,0,0,1,1.27,1.77,1.61,1.61,0,0,1-.57,1.32,3.06,3.06,0,0,1-1.53.61l2.4,2.92a1.42,1.42,0,0,0,.44.39,1.48,1.48,0,0,0,.57.16v.21H685l-2.77-3.55-.64,0v2.27c0,.43.06.7.19.81a1.59,1.59,0,0,0,.86.23v.21h-3.23Z"/><path class="cls-1" d="M513.86,301.48v9.21h24a2.44,2.44,0,0,0,1.6-.46,3.21,3.21,0,0,0,.89-1.67h1v11.06h-1a3.14,3.14,0,0,0-.88-1.65,2.5,2.5,0,0,0-1.62-.48H502.64v-1a3.2,3.2,0,0,0,1.66-.87,2.44,2.44,0,0,0,.49-1.61V283.36a2.35,2.35,0,0,0-.48-1.58,3.57,3.57,0,0,0-1.67-.91v-1h34.19a2.58,2.58,0,0,0,1.64-.46,3.38,3.38,0,0,0,.9-1.66h.89v11.06h-.89a3.28,3.28,0,0,0-.9-1.67,2.51,2.51,0,0,0-1.64-.46h-23V295H528.1a2.42,2.42,0,0,0,1.6-.47,3.42,3.42,0,0,0,.93-1.66h.9v10.78h-.9a3.31,3.31,0,0,0-.89-1.65,2.45,2.45,0,0,0-1.64-.48Z"/><path class="cls-1" d="M555.39,292.74V314a2.34,2.34,0,0,0,.49,1.6,3.2,3.2,0,0,0,1.66.91v1H545v-1a3.27,3.27,0,0,0,1.66-.87,2.42,2.42,0,0,0,.48-1.61v-30.7a2.34,2.34,0,0,0-.46-1.57,3.82,3.82,0,0,0-1.68-.9v-1h14.53v1c-1,.25-1.48.67-1.48,1.31a2.9,2.9,0,0,0,1.08,1.87l20.38,20V283.35a2.41,2.41,0,0,0-.47-1.59,3.46,3.46,0,0,0-1.68-.88v-1H589.9v1a3.36,3.36,0,0,0-1.68.88,2.41,2.41,0,0,0-.47,1.59V314a2.42,2.42,0,0,0,.47,1.6,3.53,3.53,0,0,0,1.68.92v1H576.34v-1c1-.2,1.49-.61,1.49-1.23a1.53,1.53,0,0,0-.4-1c-.27-.34-.89-1-1.87-2Z"/><path class="cls-1" d="M623.15,308.08H605.69l-2,4.09a5.8,5.8,0,0,0-.72,2.31c0,1.07.73,1.76,2.18,2v1H591.25v-1a3.63,3.63,0,0,0,1.91-.77,8.18,8.18,0,0,0,1.47-2.25l13.84-27.74a6.36,6.36,0,0,0,.77-2.74c0-.93-.62-1.64-1.89-2.15v-1h14.72v1a2.44,2.44,0,0,0-1.86,2.27,6.16,6.16,0,0,0,.84,2.72l14.36,26.91a12.9,12.9,0,0,0,1.86,2.83,4,4,0,0,0,2.06.92v1H623.88v-1c1.48-.25,2.22-.92,2.22-2a5.56,5.56,0,0,0-.85-2.57Zm-2.75-5.29-6.2-12.07-5.91,12.07Z"/><path class="cls-1" d="M675.16,283.36v19.9q0,6.81-2.7,10-4.38,5.07-16.44,5.07-8.09,0-13.06-2.45a9.63,9.63,0,0,1-4.9-5.07,20.14,20.14,0,0,1-1.22-7.54v-19.9a2.35,2.35,0,0,0-.47-1.58,3.62,3.62,0,0,0-1.68-.9v-1h13.38v1a3.28,3.28,0,0,0-1.69.89,2.42,2.42,0,0,0-.46,1.58v18.07a16,16,0,0,0,.56,4.82,5.63,5.63,0,0,0,1.94,2.75c1.84,1.46,4.51,2.18,8,2.18s6.15-.72,8-2.18a5.67,5.67,0,0,0,1.89-2.75,16.55,16.55,0,0,0,.53-4.82V283.35a2.39,2.39,0,0,0-.44-1.57,3.65,3.65,0,0,0-1.7-.9v-1h12.61v1a3.33,3.33,0,0,0-1.68.89,2.38,2.38,0,0,0-.47,1.59"/><path class="cls-3" d="M678.09,268.31a4.88,4.88,0,1,1,4.88,4.83A4.86,4.86,0,0,1,678.09,268.31Z"/><path class="cls-1" d="M493.89,351.9l-1.22,2.39-.21-.12v-.12c0-.17-.14-.35-.43-.54a5.29,5.29,0,0,0-3.12-.92,4.56,4.56,0,0,0-1.4.19,1.63,1.63,0,0,0-.72.44,1,1,0,0,0-.27.65q0,.57.69.78a11.62,11.62,0,0,0,1.54.22l1.18.12a9.15,9.15,0,0,1,1.69.3,4.08,4.08,0,0,1,1.15.55,2.59,2.59,0,0,1,.81,1,2.92,2.92,0,0,1,.29,1.27,2.85,2.85,0,0,1-.7,1.9,3.68,3.68,0,0,1-1.95,1.12,7.92,7.92,0,0,1-2.11.27,9.12,9.12,0,0,1-4-1,1.81,1.81,0,0,0-.5-.19.61.61,0,0,0-.3.16l-.22-.11,1.11-2.49.21.11v.1a.81.81,0,0,0,.33.61,4,4,0,0,0,1.5.74,6.52,6.52,0,0,0,1.93.31,4,4,0,0,0,1.7-.33,1.69,1.69,0,0,0,.62-.49,1,1,0,0,0,.23-.64.74.74,0,0,0-.55-.72,6.72,6.72,0,0,0-1.54-.28l-1.15-.12c-.77-.08-1.32-.15-1.64-.22a3.9,3.9,0,0,1-.95-.35,2.48,2.48,0,0,1-1.08-1,2.72,2.72,0,0,1-.35-1.38,2.77,2.77,0,0,1,.9-2.12,4.89,4.89,0,0,1,3.5-1.11,8.05,8.05,0,0,1,1.82.2,13.91,13.91,0,0,1,2.11.72,2,2,0,0,0,.53.17.58.58,0,0,0,.37-.17Z"/><path class="cls-1" d="M525.59,356.94v3.45a.49.49,0,0,0,.1.35.8.8,0,0,0,.38.2v.23h-3.21v-.23a.79.79,0,0,0,.39-.2.49.49,0,0,0,.1-.35v-3.45l-3.29-4.6a4.67,4.67,0,0,0-.67-.8,1.09,1.09,0,0,0-.58-.25v-.24h4v.24c-.33.06-.5.21-.5.46a1.6,1.6,0,0,0,.31.59l1.84,2.71,1.89-2.71a1.43,1.43,0,0,0,.3-.6.37.37,0,0,0-.13-.29.74.74,0,0,0-.37-.16v-.24h4v.24a1.12,1.12,0,0,0-.58.25,5.19,5.19,0,0,0-.67.8Z"/><path class="cls-1" d="M564.86,351.9l-1.22,2.39-.2-.12v-.12c0-.17-.14-.35-.43-.54a5.32,5.32,0,0,0-3.13-.92,4.54,4.54,0,0,0-1.39.19,1.63,1.63,0,0,0-.72.44.92.92,0,0,0-.27.65q0,.57.69.78a11.31,11.31,0,0,0,1.55.22l1.17.12a9.31,9.31,0,0,1,1.69.3,4.22,4.22,0,0,1,1.15.55,2.47,2.47,0,0,1,.8,1,2.79,2.79,0,0,1,.3,1.27,2.89,2.89,0,0,1-.69,1.9,3.81,3.81,0,0,1-1.95,1.12,8.07,8.07,0,0,1-2.13.27,9,9,0,0,1-4-1,2.26,2.26,0,0,0-.5-.19.62.62,0,0,0-.32.16l-.22-.11,1.11-2.49.22.11v.1a.81.81,0,0,0,.33.61,4,4,0,0,0,1.5.74,6.52,6.52,0,0,0,1.93.31,3.92,3.92,0,0,0,1.69-.33,1.73,1.73,0,0,0,.63-.49,1.09,1.09,0,0,0,.23-.64.74.74,0,0,0-.54-.72,7.1,7.1,0,0,0-1.55-.28l-1.15-.12c-.78-.08-1.32-.15-1.64-.22a4.13,4.13,0,0,1-1-.35,2.49,2.49,0,0,1-1.06-1,2.63,2.63,0,0,1-.36-1.38,2.79,2.79,0,0,1,.89-2.12,4.92,4.92,0,0,1,3.5-1.11,8.08,8.08,0,0,1,1.83.2,14.29,14.29,0,0,1,2.11.72,2,2,0,0,0,.53.17.6.6,0,0,0,.37-.17Z"/><path class="cls-1" d="M596.27,352.72v7.68a.48.48,0,0,0,.11.34.68.68,0,0,0,.37.2v.24h-3.18v-.24a.72.72,0,0,0,.37-.2.48.48,0,0,0,.1-.34v-7.68h-3.17a.5.5,0,0,0-.34.11.61.61,0,0,0-.19.36h-.25v-2.62h.25a.89.89,0,0,0,.19.38.49.49,0,0,0,.34.1h8.57a.52.52,0,0,0,.35-.1.79.79,0,0,0,.19-.38h.24v2.62H600a.67.67,0,0,0-.19-.36.52.52,0,0,0-.35-.11Z"/><path class="cls-1" d="M628.46,356.73v2.77H635a.54.54,0,0,0,.35-.1.75.75,0,0,0,.18-.37h.25v2.62h-.25a.75.75,0,0,0-.18-.37.54.54,0,0,0-.35-.11h-9.28v-.23a.84.84,0,0,0,.38-.2.49.49,0,0,0,.1-.35v-8.56a.52.52,0,0,0-.1-.35.84.84,0,0,0-.38-.19v-.24h9.1a.53.53,0,0,0,.34-.1.75.75,0,0,0,.2-.38h.24v2.61h-.24a.68.68,0,0,0-.2-.36.53.53,0,0,0-.34-.1h-6.39v2.4h4.15a.49.49,0,0,0,.34-.1.75.75,0,0,0,.19-.37h.24v2.55h-.24a.67.67,0,0,0-.19-.35.45.45,0,0,0-.34-.12Z"/><path class="cls-1" d="M668.19,361l-3.76-6.85v6.22a.52.52,0,0,0,.1.35.8.8,0,0,0,.37.19v.24h-3v-.24a.79.79,0,0,0,.38-.19.52.52,0,0,0,.11-.35v-8.57a.51.51,0,0,0-.11-.35.79.79,0,0,0-.38-.19v-.24h3.94v.24a.4.4,0,0,0-.35.41.72.72,0,0,0,.1.34l2.79,5.09,2.81-5a1.21,1.21,0,0,0,.19-.5c0-.21-.12-.32-.37-.34v-.24h3.86v.24a.7.7,0,0,0-.37.19.46.46,0,0,0-.11.35v8.57a.48.48,0,0,0,.11.35.7.7,0,0,0,.37.19v.24h-3.19v-.24a.8.8,0,0,0,.37-.19.52.52,0,0,0,.11-.35v-6.22Z"/></g></svg>