<svg id="Слой_1" data-name="Слой 1" xmlns="http://www.w3.org/2000/svg" viewBox="0 0 841.89 595.28"><defs><style>.cls-1{fill:#05529b;}.cls-2{fill:#e7343f;}</style></defs><title>1</title><g id="Слой_15" data-name="Слой 15"><path class="cls-1" d="M197,279.48H186.11V297.4a17.65,17.65,0,0,0-13.33-5.49c-13,0-22.75,10.24-22.75,23.84s9.78,23.84,22.75,23.84c6.72,0,10.14-2.27,13.33-6v4.85H197Zm-23,49.84c-7.52,0-12.78-5.58-12.78-13.57s5.26-13.58,12.78-13.58,12.78,5.58,12.78,13.58S181.46,329.32,173.93,329.32Z"/><path class="cls-1" d="M227.26,291.9c-13.92,0-24.42,10.26-24.42,23.85s10.5,23.84,24.42,23.84,24.46-10.25,24.46-23.84S241.2,291.9,227.26,291.9m0,37.42c-7.7,0-13.29-5.7-13.29-13.57s5.59-13.58,13.29-13.58,13.33,5.71,13.33,13.58S235,329.32,227.26,329.32Z"/><path class="cls-1" d="M348.41,291.9c-5.14,0-12,1.31-16.19,7.41-3.32-4.72-8.84-7.41-15.31-7.41-3.92,0-9.2,1-13,5.41v-4.25H293.1v45.38H304V313.35c0-7.66,5.46-11.09,10.88-11.09,6.18,0,9.73,4,9.73,11v25.18h10.89V313.35c0-7.66,5.47-11.09,10.88-11.09,6.19,0,9.73,4,9.73,11v25.18H367V310.08c0-10.7-7.64-18.18-18.58-18.18"/><polygon class="cls-1" points="472.37 293.06 458.62 293.06 444 309.86 440.01 309.86 440.01 279.48 429.11 279.48 429.11 338.44 440.01 338.44 440.01 319.8 443.94 319.8 458.7 338.44 472.47 338.44 453.28 314.48 472.37 293.06"/><path class="cls-1" d="M538.18,279.48H527.33v59h10.85v-4.85c3,3.94,7.63,6,13.29,6,13,0,22.75-10.25,22.75-23.84s-9.78-23.84-22.75-23.84a17.71,17.71,0,0,0-13.29,5.41Zm12.13,49.84c-7.52,0-12.77-5.58-12.77-13.57s5.25-13.58,12.77-13.58,12.78,5.58,12.78,13.58S557.84,329.32,550.31,329.32Z"/><path class="cls-1" d="M614.34,297.8c-2.93-3.67-7-5.9-13.33-5.9-13,0-22.75,10.26-22.75,23.85S588,339.59,601,339.59c6.28,0,10.35-2.18,13.33-6v4.84H625.2V293.06H614.34Zm-12.17,31.52c-7.53,0-12.78-5.58-12.78-13.57s5.25-13.58,12.78-13.58S615,307.75,615,315.75,609.69,329.32,602.17,329.32Z"/><path class="cls-1" d="M506.85,297.8c-2.93-3.67-7-5.9-13.33-5.9-13,0-22.75,10.26-22.75,23.85s9.78,23.84,22.75,23.84c6.28,0,10.35-2.18,13.33-6v4.84H517.7V293.06H506.85Zm-12.17,31.52c-7.53,0-12.78-5.58-12.78-13.57s5.25-13.58,12.78-13.58,12.78,5.58,12.78,13.58S502.2,329.32,494.68,329.32Z"/><path class="cls-1" d="M408.64,297.8c-2.94-3.67-7-5.9-13.33-5.9-13,0-22.75,10.26-22.75,23.85s9.78,23.84,22.75,23.84c6.29,0,10.35-2.18,13.33-6v4.84h10.85V293.06H408.64Zm-12.17,31.52c-7.53,0-12.78-5.58-12.78-13.57s5.25-13.58,12.78-13.58,12.77,5.58,12.77,13.58S404,329.32,396.47,329.32Z"/><polygon class="cls-2" points="641.47 293.06 641.47 330.11 661.64 306.77 641.47 293.06"/><polygon class="cls-2" points="680.67 293.06 641.47 338.44 690.87 304.81 680.67 293.06"/><polygon class="cls-2" points="651.22 338.44 717.8 338.44 717.8 293.06 651.22 338.44"/><path class="cls-1" d="M268.71,296.92v-3.86H258v45.38H268.8V313.53c0-6.84,3.91-11.27,10-11.27a16.87,16.87,0,0,1,6.87,1.45L288.2,293A20.5,20.5,0,0,0,281,291.9c-5.16,0-9.36,1.73-12.27,5"/></g></svg>