<svg id="Слой_1" data-name="Слой 1" xmlns="http://www.w3.org/2000/svg" viewBox="0 0 841.89 595.28"><defs><style>.cls-1{fill:#df5e1e;}.cls-2{fill:#9d9d9d;}</style></defs><title>1</title><g id="Слой_3" data-name="Слой 3"><path class="cls-1" d="M209.75,247.52v81.8c.16,5,.33,7.35,3,13.72,3.69,8.91,11.36,21.74,31.13,21.51V356c-32.49-2.55-25.39-37.14-25.39-66.25,0-45.61-4.59-49.57,19.43-49.52,10.65,0,12.5-.4,20.4,3.62-1.41,5-5.3,8.29-6.52,15.37-.34,17.78-1.64,91.23-.12,104.05l7-.05c1.38-8.28.63-70.13.48-87.55a73,73,0,0,1,.65-12.77,27.26,27.26,0,0,1,5.39-12.38c9.7,5.32,6.45,39.46,6.46,53.31,0,9.89-.55,54.14.35,60.09l7.62.07c1.9-6.16.79-88.85.42-101.51-1.25-8.88-6.32-14.12-7-18.48,5.64-4.28,12-3.74,20.34-3.74,20,0,20.11,2.74,19.54,31.25-.12,6-.27,13.21-.27,21.76,0,29.57,6.19,57.15-21.94,62.49-4.89.93-3.42,2.83-3.24,8.65l7.27,0c3.78-2.81,16.23-3.5,23.44-19.9,5-11.39,3.18-27.32,3.19-40.71,0-14.67-.05-29.33,0-44,.06-15-1.14-19.26-7.42-23.55-8.38-5.71-17.37-5.18-27.1-4.78-7,.28-7.87.15-14.51,3-10.77,4.52-2.16,3.82-13.57-.75-11.87-4.78-35-5.55-44,4.72-2.77,3.16-3.06,5.77-5,9.12"/><path class="cls-2" d="M469.58,299.16,469.51,354c-.94,5-4.94,3.87-9.88,3.83-42.49-.39-41.37,4.82-41.62-27.62-.21-28.08-.51-27.53,27.53-27.49,17.76,0,10.78,1.14,24-3.54m-43.46,66.23h42.26C479,358.1,477,359.55,477,339c0-30.59,1.27-81.05-.27-107.34h-7.06c-3,35.61,9.22,63.2-14.4,63.68-17.52.36-34.91-4-42.2,9.54-4.2,7.8-2.87,44.12-1.18,48.42C415.22,361.78,418.92,361.83,426.12,365.39Z"/><path class="cls-2" d="M337.77,329.83c.48-14.28-3-26.94,13.6-27.24,5.37-.08,35.73-.93,37.9,1.2,3,2.93,1.17,15-.79,17.69-5.05,7-21.37,4.91-33.56,4.85-10.49-.05-9.2.93-17.15,3.5m.88,35.56h47c4.19-2.42,16.34-5.57,15.39-18.85l-7-.17c-2.75,13-9.9,11.48-22.46,11.48-6.46,0-28.24,1.26-32.57-1.26-2.09-3-1.88-11.24-.33-15.29,4.92-12.86,25-5.85,42.54-7.68,20.77-2.16,23.4-37.36,5.28-38.38-10.49-.59-22.71,0-33.42,0-27.83-.09-22.72,21.36-22.74,43.79,0,4.55-.44,12.31.17,16.48a9.94,9.94,0,0,0,2.75,6Z"/><path class="cls-2" d="M632.07,352.5v-2.73c0-9.13.89-10.88-5.22-18.56-4.81-6.06-10.16-5.45-29.1-5.45-7.25,0-17.07,1.42-21.81-2.79-3.93-3.49-6-14.58-2.82-19.72,2.23-2.23,37.51-2.47,42.33.43,3.4,2,3.84,5.44,5.76,9.26l6.51.41c.89-21.19-22.67-18.74-32.61-18.72-20.6,0-33-4.06-30.33,21.38a19.38,19.38,0,0,0,10,15.13c11.11,5.84,37.66-2.34,45.91,5.1,3.07,2.76,4.49,7.86,4.37,12.75-.22,10.19-4.46,8.46-13.7,8.54-7.41.07-15.92-.26-20.69-.26-12.77,0-19.38.83-21.58-11.47h-7c.63,19.79,17.53,18.9,29.5,18.9,11.64,0,40.48,4.86,40.48-12.19"/><path class="cls-2" d="M544.72,350.43c-2.77,7.47-9.9,7.21-19.12,7.2-27.45-.05-32,3.48-32-21.28,0-5.81-.84-22.12,1.07-26.58,3.16-7.35,10.08-6.67,19.53-6.66,26.88,0,31.34-3.26,31.32,20.92,0,5.51.61,22.69-.77,26.4m-43.4,15h36.85c.2-.16.53-.63.65-.44l1.93-1.12c5.7-3,10.23-5.71,11.74-13.7,1.25-6.61.43-21.27.45-28.74,0-25.64-10.09-25.74-33.49-25.75s-33.38.64-33.33,25.75c0,7.22-.81,22.33.37,28.59C488.65,361.47,497.42,362.81,501.32,365.39Z"/></g></svg>