<svg id="Слой_1" data-name="Слой 1" xmlns="http://www.w3.org/2000/svg" viewBox="0 0 841.89 595.28"><defs><style>.cls-1{fill:#00305b;}</style></defs><title>1</title><g id="Слой_9" data-name="Слой 9"><path class="cls-1" d="M538.12,267.38a8.52,8.52,0,0,0,0,11.67,7.65,7.65,0,0,0,11.21,0,8.29,8.29,0,0,0,2.33-5.88,8.17,8.17,0,0,0-2.32-5.78,7.59,7.59,0,0,0-11.26,0m12.39,12.95a9.48,9.48,0,0,1-13.57-.08,10.37,10.37,0,0,1,.22-14.36,9.22,9.22,0,0,1,6.61-2.72,9.12,9.12,0,0,1,6.8,2.93,10.33,10.33,0,0,1-.06,14.23Zm-5.86-10.5a4.38,4.38,0,0,0-1.62-.23h-.68v3.21h1.09a2.52,2.52,0,0,0,1.52-.4,1.57,1.57,0,0,0,.54-1.32A1.26,1.26,0,0,0,544.65,269.83Zm-5.09,8.88V267.64l3,0c1.31,0,2.06,0,2.2,0a4.73,4.73,0,0,1,2.1.57,2.79,2.79,0,0,1,1.43,2.63,2.48,2.48,0,0,1-.76,2,3.32,3.32,0,0,1-1.84.75,3.61,3.61,0,0,1,1.51.64,3,3,0,0,1,1,2.48v1.31l.09.33.08.3h-2.65a7.78,7.78,0,0,1-.18-1.53,5.38,5.38,0,0,0-.16-1.35,1.36,1.36,0,0,0-.79-.82,3.46,3.46,0,0,0-1-.17l-.6,0h-.59v3.91Z"/><path class="cls-1" d="M286.86,267.1q2.7-4.08,10.39-4.08c.48,0,1,0,1.5.05s1.1.06,1.75.13v7.28c-.8-.06-1.39-.09-1.75-.09s-.67-.05-1-.05c-2.35,0-3.74.64-4.19,1.9s-.69,4.44-.69,9.59h7.61v6.3h-7.69v41H285.2v-41h-6.37v-6.3h6.37v-7.45c.12-3.32.68-5.74,1.66-7.28"/><path class="cls-1" d="M336.22,318a30.83,30.83,0,0,0,2.87-13.39,24.88,24.88,0,0,0-2-10.84q-3.26-6.56-11.19-6.56c-4.7,0-8.13,1.87-10.26,5.59a26.68,26.68,0,0,0-3.21,13.48q0,7.59,3.21,12.65c2.13,3.37,5.51,5.06,10.17,5.06,5.08,0,8.58-2,10.46-6M341,286.35q6.11,6.13,6.11,18,0,11.49-5.38,19T325,330.85c-6.29,0-11.3-2.19-15-6.61s-5.56-10.38-5.56-17.84q0-12,5.85-19.06c3.91-4.74,9.15-7.1,15.73-7.12A20.4,20.4,0,0,1,341,286.35Z"/><path class="cls-1" d="M356.47,281.6h7.31v8.21a18,18,0,0,1,4.41-5.81,11.15,11.15,0,0,1,8.07-3.45l.73,0,1.75.18v8.44a8.93,8.93,0,0,0-1.28-.18,12,12,0,0,0-1.25,0c-3.87,0-6.84,1.29-8.92,3.9a13.71,13.71,0,0,0-3.12,8.92v27.33h-7.7Z"/><path class="cls-1" d="M385.41,281.6h7.3v6.76a20.84,20.84,0,0,1,6.87-6,17.93,17.93,0,0,1,8.09-1.81c6.5,0,10.87,2.35,13.16,7q1.88,3.87,1.89,11.06v30.48h-7.83V299.18a16.68,16.68,0,0,0-1.24-7q-2.06-4.44-7.43-4.44a14.44,14.44,0,0,0-4.49.58,11.45,11.45,0,0,0-5.55,3.91,11.84,11.84,0,0,0-2.52,4.88,34.63,34.63,0,0,0-.56,7.14v24.89h-7.69Z"/><path class="cls-1" d="M442.4,321.94a8.94,8.94,0,0,0,5.78,2A17.13,17.13,0,0,0,456,322c4.28-2.17,6.41-5.7,6.41-10.62V305a12.81,12.81,0,0,1-3.63,1.55,30.75,30.75,0,0,1-4.37.88l-4.65.63a17.09,17.09,0,0,0-6.29,1.82,7.14,7.14,0,0,0-3.54,6.66,6.69,6.69,0,0,0,2.43,5.45m16.2-21.61a4.2,4.2,0,0,0,3.55-2.31,7.08,7.08,0,0,0,.51-3c0-2.72-.93-4.7-2.82-5.91s-4.52-1.86-8-1.86c-4,0-6.87,1.13-8.54,3.36a11.18,11.18,0,0,0-1.85,5.56h-7.18q.21-8.79,5.47-12.2A21.9,21.9,0,0,1,452,280.46c5.39,0,9.74,1.06,13.11,3.19s5,5.44,5,9.93V321a3.83,3.83,0,0,0,.47,2,2.45,2.45,0,0,0,2.11.76c.33,0,.72,0,1.14,0s.89-.13,1.37-.21v5.9a14.73,14.73,0,0,1-5.29.8,6.28,6.28,0,0,1-5.78-2.93,11.59,11.59,0,0,1-1.32-4.4,19.62,19.62,0,0,1-6.75,5.55,20.2,20.2,0,0,1-9.7,2.35,14.24,14.24,0,0,1-10.43-4,13.67,13.67,0,0,1-4-10.07q0-6.6,4-10.24a18.53,18.53,0,0,1,10.42-4.48Z"/><path class="cls-1" d="M343.07,290.44c-5.34,0-13.57,2.95-21.48,7.69a59.08,59.08,0,0,0-14.71,12c-2.92,3.51-4.2,6.62-3.35,8.15.54,1,2.1,1.53,4.38,1.53,5.34,0,13.57-2.94,21.47-7.68a59.37,59.37,0,0,0,14.72-12c2.91-3.5,4.19-6.64,3.34-8.17-.54-1-2.1-1.52-4.37-1.52m-35.16,32.65c-4.43,0-6.32-1.73-7.11-3.17-1.64-2.93-.37-7.07,3.69-11.94A62.43,62.43,0,0,1,320,295.28c8.49-5.08,17.11-8.11,23.06-8.11,4.42,0,6.3,1.71,7.11,3.16,1.63,2.94.36,7.07-3.69,11.94A62.05,62.05,0,0,1,331,315C322.48,320.05,313.86,323.09,307.91,323.09Z"/><polygon class="cls-1" points="482.07 324.68 477.72 319.92 520.96 277.37 525.31 282.13 482.07 324.68"/><polygon class="cls-1" points="488.85 329.71 484.5 324.96 528.23 281.9 532.58 286.66 488.85 329.71"/><polygon class="cls-1" points="501.02 301.39 482.08 282.63 486.45 277.88 505.39 296.65 501.02 301.39"/><polygon class="cls-1" points="530.28 328.89 507.45 306.45 511.8 301.69 534.63 324.13 530.28 328.89"/><path class="cls-1" d="M618.6,286.64l15.94-11.77s-72.6-57.25-189.68-60.6S229.41,275,210.48,291.87L195,305.25s93.76-75.72,207.6-75.72c0,0,101.13-11.15,213.13,54.72Z"/><path class="cls-1" d="M223.26,309.05l-15.93,11.76s72.6,57.25,189.67,60.6,215.46-60.72,234.4-77.6l15.49-13.37s-93.75,75.71-207.59,75.71c0,0-101.13,11.15-213.13-54.71Z"/></g></svg>