<svg id="Слой_1" data-name="Слой 1" xmlns="http://www.w3.org/2000/svg" viewBox="0 0 841.89 595.28"><defs><style>.cls-1{fill:#dc0c15;}</style></defs><title>1</title><g id="Слой_5" data-name="Слой 5"><path class="cls-1" d="M536.75,297.84c0-24.06,19.28-43.57,43.07-43.57,14.88,0,28,7.45,36.11,19.83h18.6c-10-22.21-30.21-36.49-54.71-36.49-32.88,0-59.53,27-59.53,60.23s26.65,60.23,59.53,60.23c24.5,0,44.71-14.28,54.71-36.49h-18.6c-8.13,12.38-21.23,19.83-36.11,19.83-23.79,0-43.07-19.5-43.07-43.57m-43.47,58.44h16.47V241.22H493.28V258c-9.34-13.75-26.47-20.38-41.3-20.4-32.9,0-59.54,27-59.54,60.21S419.07,358.1,452,358.05c14.83,0,32-6.64,41.3-20.41Zm.89-58.44c0,23.69-18.53,43.57-42.2,43.57s-43.06-19.5-43.06-43.57,19.28-43.57,43.06-43.57S494.17,274.16,494.17,297.84Zm-99.91-41.78h1.15V239.4H308.19v16.66h35.37V356.28H360V256.06Zm-166,13.21c0-9.6,13-15.77,26.48-15.77,12.46,0,24.27,3,29.94,13.3h16.82c-5.51-21.16-26.27-29.17-46.76-29.17-19.12,0-43,11.4-43,31.64,0,23.25,22.83,29,43.59,32.86,19.06,3.57,34.78,7.06,34.78,20.76,0,12.47-17.12,19.1-31.4,19.1-16.34,0-30.4-6.47-34.09-20.41h-17.3c4.48,26.58,28.91,36.44,51.39,36.47,25.16.05,47.91-14.38,47.91-35.17,0-26.79-26.12-31.87-48.4-35.95C241.84,283.93,228.23,279.71,228.23,269.27Z"/></g></svg>