<?xml version="1.0"?>
<svg xmlns="http://www.w3.org/2000/svg" xmlns:xlink="http://www.w3.org/1999/xlink" version="1.1" id="Capa_1" x="0px" y="0px" viewBox="0 0 512 512" style="enable-background:new 0 0 512 512;" xml:space="preserve" width="512px" height="512px"><g><g>
	<g>
		<path d="M408.307,448.903H103.692c-4.142,0-7.5,3.358-7.5,7.5c0,4.142,3.358,7.5,7.5,7.5h304.613c4.142,0,7.5-3.358,7.5-7.5    C415.806,452.261,412.449,448.903,408.307,448.903z" data-original="#000000" class="active-path" data-old_color="#000000" fill="#FFFFFF"/>
	</g>
</g><g>
	<g>
		<path d="M456.403,497h-8.532V23.532C447.871,10.557,437.314,0,424.339,0H87.661C74.685,0,64.129,10.557,64.129,23.532V497h-8.532    c-4.142,0-7.5,3.358-7.5,7.5c0,4.142,3.358,7.5,7.5,7.5h400.807c4.142,0,7.5-3.358,7.5-7.5    C463.904,500.358,460.545,497,456.403,497z M432.871,497H79.129v-65.161h40.6c4.142,0,7.5-3.358,7.5-7.5    c0-4.142-3.358-7.5-7.5-7.5h-8.536v-97.226h65.162v29.304c0,6.718,3.612,12.983,9.426,16.349l60.754,35.173    c2.919,1.69,6.192,2.535,9.465,2.535c3.273,0,6.546-0.845,9.465-2.535l60.754-35.173c5.814-3.366,9.426-9.631,9.426-16.349    v-29.304h65.162v97.226H151.793c-4.142,0-7.5,3.358-7.5,7.5c0,4.142,3.358,7.5,7.5,7.5h281.078V497z M400.806,64.129H111.192    V47.064h289.613V64.129z M247.468,96.193V79.129h17.064v17.064H247.468z M264.532,111.193v14.778l-8.532,17.065l-8.532-17.065    v-14.778H264.532z M255.999,287.548c4.142,0,7.5-3.358,7.5-7.5v-36.86l49.676,28.76l-55.226,31.973    c-1.203,0.696-2.698,0.696-3.9,0l-55.227-31.973l49.676-28.76v36.86C248.499,284.19,251.858,287.548,255.999,287.548z     M284.306,338.781l28.862,16.709L263.5,384.245v-66.361c0.669-0.289,1.327-0.611,1.965-0.98l55.18-31.946v57.528l-28.823-16.687    c-3.583-2.075-8.173-0.852-10.249,2.733C279.497,332.117,280.721,336.705,284.306,338.781z M246.533,316.903    c0.638,0.37,1.296,0.691,1.965,0.98v66.361l-49.668-28.755l28.862-16.709c3.585-2.075,4.808-6.664,2.733-10.249    c-2.075-3.585-6.665-4.809-10.249-2.733l-28.823,16.687v-57.528L246.533,316.903z M432.871,416.839h-17.064V119.726    c0-4.142-3.358-7.5-7.5-7.5c-4.142,0-7.5,3.358-7.5,7.5v184.887h-65.162v-26.097c0-6.717-3.611-12.982-9.426-16.349    l-60.754-35.173c-5.838-3.38-13.091-3.38-18.93,0l-60.755,35.174c-5.813,3.367-9.425,9.631-9.425,16.349v26.097h-65.162V79.129    h121.274v48.613c0,1.165,0.271,2.313,0.792,3.354l15.24,30.481v38.311c0,4.142,3.358,7.5,7.5,7.5c4.142,0,7.5-3.358,7.5-7.5    v-38.311l15.24-30.481c0.521-1.042,0.792-2.189,0.792-3.354V79.129h121.274v8.526c0,4.142,3.358,7.5,7.5,7.5    c4.142,0,7.5-3.358,7.5-7.5V39.564c0-4.142-3.358-7.5-7.5-7.5H103.692c-4.142,0-7.5,3.358-7.5,7.5v377.274H79.129V23.532    c0-4.704,3.828-8.532,8.532-8.532h336.678c4.705,0,8.532,3.828,8.532,8.532V416.839z" data-original="#000000" class="active-path" data-old_color="#000000" fill="#FFFFFF"/>
	</g>
</g></g> </svg>
