<?xml version="1.0"?>
<svg xmlns="http://www.w3.org/2000/svg" height="512px" viewBox="0 0 64 64" width="512px" class=""><g><g id="Programing-2" data-name="Programing"><path d="m13 50h2v2h-2z" data-original="#000000" class="active-path" data-old_color="#000000" fill="#FFFFFF"/><path d="m17 50h2v2h-2z" data-original="#000000" class="active-path" data-old_color="#000000" fill="#FFFFFF"/><path d="m21 50h2v2h-2z" data-original="#000000" class="active-path" data-old_color="#000000" fill="#FFFFFF"/><path d="m25 50h2v2h-2z" data-original="#000000" class="active-path" data-old_color="#000000" fill="#FFFFFF"/><path d="m29 50h2v2h-2z" data-original="#000000" class="active-path" data-old_color="#000000" fill="#FFFFFF"/><path d="m33 50h2v2h-2z" data-original="#000000" class="active-path" data-old_color="#000000" fill="#FFFFFF"/><path d="m37 50h2v2h-2z" data-original="#000000" class="active-path" data-old_color="#000000" fill="#FFFFFF"/><path d="m41 50h2v2h-2z" data-original="#000000" class="active-path" data-old_color="#000000" fill="#FFFFFF"/><path d="m45 50h2v2h-2z" data-original="#000000" class="active-path" data-old_color="#000000" fill="#FFFFFF"/><path d="m49 50h2v2h-2z" data-original="#000000" class="active-path" data-old_color="#000000" fill="#FFFFFF"/><path d="m13 53h2v2h-2z" data-original="#000000" class="active-path" data-old_color="#000000" fill="#FFFFFF"/><path d="m17 53h2v2h-2z" data-original="#000000" class="active-path" data-old_color="#000000" fill="#FFFFFF"/><path d="m21 53h2v2h-2z" data-original="#000000" class="active-path" data-old_color="#000000" fill="#FFFFFF"/><path d="m25 53h2v2h-2z" data-original="#000000" class="active-path" data-old_color="#000000" fill="#FFFFFF"/><path d="m29 53h2v2h-2z" data-original="#000000" class="active-path" data-old_color="#000000" fill="#FFFFFF"/><path d="m33 53h2v2h-2z" data-original="#000000" class="active-path" data-old_color="#000000" fill="#FFFFFF"/><path d="m37 53h2v2h-2z" data-original="#000000" class="active-path" data-old_color="#000000" fill="#FFFFFF"/><path d="m41 53h2v2h-2z" data-original="#000000" class="active-path" data-old_color="#000000" fill="#FFFFFF"/><path d="m45 53h2v2h-2z" data-original="#000000" class="active-path" data-old_color="#000000" fill="#FFFFFF"/><path d="m49 53h2v2h-2z" data-original="#000000" class="active-path" data-old_color="#000000" fill="#FFFFFF"/><path d="m13 56h2v2h-2z" data-original="#000000" class="active-path" data-old_color="#000000" fill="#FFFFFF"/><path d="m17 56h2v2h-2z" data-original="#000000" class="active-path" data-old_color="#000000" fill="#FFFFFF"/><path d="m21 56h2v2h-2z" data-original="#000000" class="active-path" data-old_color="#000000" fill="#FFFFFF"/><path d="m25 56h14v2h-14z" data-original="#000000" class="active-path" data-old_color="#000000" fill="#FFFFFF"/><path d="m41 56h2v2h-2z" data-original="#000000" class="active-path" data-old_color="#000000" fill="#FFFFFF"/><path d="m45 56h2v2h-2z" data-original="#000000" class="active-path" data-old_color="#000000" fill="#FFFFFF"/><path d="m49 56h2v2h-2z" data-original="#000000" class="active-path" data-old_color="#000000" fill="#FFFFFF"/><path d="m12 5h2v2h-2z" data-original="#000000" class="active-path" data-old_color="#000000" fill="#FFFFFF"/><path d="m16 5h2v2h-2z" data-original="#000000" class="active-path" data-old_color="#000000" fill="#FFFFFF"/><path d="m20 5h2v2h-2z" data-original="#000000" class="active-path" data-old_color="#000000" fill="#FFFFFF"/><path d="m15 15a1 1 0 0 0 -1 1v19a1 1 0 0 0 2 0v-19a1 1 0 0 0 -1-1z" data-original="#000000" class="active-path" data-old_color="#000000" fill="#FFFFFF"/><path d="m22 19a1 1 0 0 0 .556-1.832l-1.756-1.168 1.752-1.168a1 1 0 1 0 -1.11-1.664l-3 2a1 1 0 0 0 0 1.664l3 2a1 1 0 0 0 .558.168z" data-original="#000000" class="active-path" data-old_color="#000000" fill="#FFFFFF"/><path d="m29.168 18.555a1 1 0 0 0 1.387.277l3-2a1 1 0 0 0 0-1.664l-3-2a1 1 0 0 0 -1.11 1.664l1.755 1.168-1.752 1.168a1 1 0 0 0 -.28 1.387z" data-original="#000000" class="active-path" data-old_color="#000000" fill="#FFFFFF"/><path d="m24.684 19.949a1 1 0 0 0 1.264-.633l2-6a1 1 0 1 0 -1.9-.632l-2 6a1 1 0 0 0 .636 1.265z" data-original="#000000" class="active-path" data-old_color="#000000" fill="#FFFFFF"/><path d="m19 22h6v2h-6z" data-original="#000000" class="active-path" data-old_color="#000000" fill="#FFFFFF"/><path d="m27 22h2v2h-2z" data-original="#000000" class="active-path" data-old_color="#000000" fill="#FFFFFF"/><path d="m23 26h12v2h-12z" data-original="#000000" class="active-path" data-old_color="#000000" fill="#FFFFFF"/><path d="m41 26h9v2h-9z" data-original="#000000" class="active-path" data-old_color="#000000" fill="#FFFFFF"/><path d="m23 30h2v2h-2z" data-original="#000000" class="active-path" data-old_color="#000000" fill="#FFFFFF"/><path d="m27 30h12v2h-12z" data-original="#000000" class="active-path" data-old_color="#000000" fill="#FFFFFF"/><path d="m41 30h4v2h-4z" data-original="#000000" class="active-path" data-old_color="#000000" fill="#FFFFFF"/><path d="m19 34h6v2h-6z" data-original="#000000" class="active-path" data-old_color="#000000" fill="#FFFFFF"/><path d="m27 34h2v2h-2z" data-original="#000000" class="active-path" data-old_color="#000000" fill="#FFFFFF"/><path d="m37 26h2v2h-2z" data-original="#000000" class="active-path" data-old_color="#000000" fill="#FFFFFF"/><path d="m59 19h-3v-14a3 3 0 0 0 -3-3h-42a3 3 0 0 0 -3 3v32a3 3 0 0 0 3 3h42a3 3 0 0 0 3-3v-16h3a1 1 0 0 1 1 1v19a1 1 0 0 1 -1 1h-39a3.548 3.548 0 0 0 -2.469.575 1.926 1.926 0 0 0 -.531 1.425v2h-5a3 3 0 0 0 -3 3v10a3 3 0 0 0 3 3h40a3 3 0 0 0 3-3v-10a3 3 0 0 0 -3-3h-33v-2c.188-.022 40 0 40 0a3 3 0 0 0 3-3v-19a3 3 0 0 0 -3-3zm-48-15h42a1 1 0 0 1 1 1v3h-44v-3a1 1 0 0 1 1-1zm42 34h-42a1 1 0 0 1 -1-1v-27h44v27a1 1 0 0 1 -1 1zm0 11v10a1 1 0 0 1 -1 1h-40a1 1 0 0 1 -1-1v-10a1 1 0 0 1 1-1h40a1 1 0 0 1 1 1z" data-original="#000000" class="active-path" data-old_color="#000000" fill="#FFFFFF"/></g></g> </svg>
