<?xml version="1.0"?>
<svg xmlns="http://www.w3.org/2000/svg" height="512px" viewBox="-21 -21 682.66669 682.66669" width="512px"><g><path d="m298.667969 597.335938h-245.332031c-5.894532 0-10.671876-4.777344-10.671876-10.671876v-533.328124c0-5.894532 4.777344-10.671876 10.671876-10.671876h245.332031c5.886719 0 10.664062 4.777344 10.664062 10.671876v533.328124c0 5.894532-4.777343 10.671876-10.664062 10.671876zm-234.667969-21.335938h224v-512h-224zm0 0" data-original="#000000" class="active-path" data-old_color="#000000" fill="#ffffff"/><path d="m60.554688 71.851562c-2.980469 0-5.832032-1.25-7.851563-3.449218l-7.21875-7.847656c-2.585937-2.804688-3.46875-6.769532-2.328125-10.40625 1.136719-3.640626 4.128906-6.394532 7.851562-7.222657 3.714844-.835937 7.59375.378907 10.171876 3.1875l7.222656 7.851563c2.867187 3.113281 3.621094 7.628906 1.917968 11.503906-1.695312 3.875-5.53125 6.382812-9.765624 6.382812zm0 0" data-original="#000000" class="active-path" data-old_color="#000000" fill="#ffffff"/><path d="m264.277344 293.335938c-2.984375.003906-5.832032-1.246094-7.839844-3.449219l-13.582031-14.761719c-3.984375-4.335938-3.707031-11.082031.628906-15.070312 4.335937-3.992188 11.085937-3.707032 15.074219.628906l13.582031 14.761718c2.863281 3.113282 3.617187 7.632813 1.917969 11.507813-1.707032 3.875-5.539063 6.382813-9.769532 6.382813zm-40.738282-44.292969c-2.984374 0-5.828124-1.246094-7.851562-3.441407l-13.5625-14.765624c-2.707031-2.78125-3.683594-6.8125-2.558594-10.523438 1.128906-3.710938 4.179688-6.519531 7.96875-7.335938 3.792969-.8125 7.730469.496094 10.277344 3.421876l13.578125 14.757812c2.867187 3.117188 3.617187 7.628906 1.921875 11.503906-1.703125 3.878906-5.53125 6.382813-9.761719 6.382813zm-40.746093-44.285157c-2.980469.007813-5.824219-1.246093-7.835938-3.445312l-13.589843-14.765625c-2.585938-2.800781-3.484376-6.777344-2.347657-10.417969 1.132813-3.644531 4.125-6.402344 7.851563-7.242187 3.71875-.839844 7.605468.371093 10.195312 3.179687l13.589844 14.761719c2.863281 3.113281 3.617188 7.628906 1.917969 11.507813-1.707031 3.875-5.535157 6.382812-9.765625 6.382812zm-40.746094-44.28125c-2.984375 0-5.832031-1.25-7.847656-3.441406l-13.570313-14.765625c-3.988281-4.335937-3.707031-11.089843.636719-15.078125 4.335937-3.984375 11.085937-3.699218 15.078125.636719l13.5625 14.765625c2.867188 3.113281 3.617188 7.632812 1.921875 11.507812-1.703125 3.875-5.535156 6.375-9.765625 6.375zm-40.714844-44.339843c-2.980469 0-5.828125-1.25-7.851562-3.441407l-13.617188-14.765624c-3.988281-4.335938-3.707031-11.085938.625-15.074219 4.335938-3.984375 11.082031-3.707031 15.074219.628906l13.578125 14.765625c2.859375 3.113281 3.617187 7.613281 1.921875 11.492188-1.6875 3.871093-5.507812 6.382812-9.730469 6.394531zm0 0" data-original="#000000" class="active-path" data-old_color="#000000" fill="#ffffff"/><path d="m291.445312 338.515625c-4.234374 0-8.066406-2.5-9.765624-6.375-1.703126-3.878906-.953126-8.394531 1.914062-11.511719l.585938-.636718-.585938-.640626c-3.988281-4.34375-3.703125-11.089843.632812-15.078124 4.34375-3.992188 11.089844-3.707032 15.078126.632812l7.222656 7.851562c3.753906 4.082032 3.753906 10.363282 0 14.445313l-7.222656 7.84375c-2.015626 2.210937-4.871094 3.46875-7.859376 3.46875zm0 0" data-original="#000000" class="active-path" data-old_color="#000000" fill="#ffffff"/><path d="m87.726562 560c-4.234374 0-8.070312-2.503906-9.773437-6.382812-1.699219-3.875-.945313-8.386719 1.921875-11.503907l13.578125-14.765625c2.578125-2.800781 6.460937-4.019531 10.175781-3.1875 3.71875.835938 6.714844 3.582032 7.851563 7.222656 1.136719 3.636719.253906 7.605469-2.332031 10.410157l-13.585938 14.722656c-2.003906 2.214844-4.851562 3.480469-7.835938 3.484375zm40.730469-44.289062c-4.230469-.003907-8.058593-2.507813-9.753906-6.382813-1.703125-3.878906-.949219-8.390625 1.917969-11.507813l13.578125-14.757812c2.550781-2.925781 6.484375-4.234375 10.273437-3.417969 3.792969.816407 6.847656 3.621094 7.96875 7.332031 1.128906 3.71875.144532 7.746094-2.554687 10.527344l-13.566407 14.761719c-2.027343 2.183594-4.878906 3.417969-7.863281 3.402344zm40.746094-44.285157c-4.234375 0-8.066406-2.503906-9.765625-6.382812-1.703125-3.875-.953125-8.394531 1.914062-11.507813l13.578126-14.804687c3.992187-4.335938 10.738281-4.621094 15.074218-.628907 4.335938 3.988282 4.621094 10.734376.628906 15.070313l-13.566406 14.753906c-2.019531 2.207031-4.875 3.457031-7.863281 3.445313zm40.75-44.277343c-4.234375 0-8.070313-2.503907-9.765625-6.382813-1.707031-3.875-.953125-8.390625 1.914062-11.507813l13.566407-14.761718c3.988281-4.339844 10.738281-4.621094 15.078125-.632813 4.335937 3.988281 4.625 10.738281.636718 15.078125l-13.570312 14.707032c-2.015625 2.195312-4.867188 3.445312-7.851562 3.445312zm40.714844-44.339844c-4.230469-.003906-8.058594-2.511719-9.761719-6.386719-1.695312-3.878906-.945312-8.390625 1.921875-11.503906l13.578125-14.761719c2.578125-2.808594 6.460938-4.023438 10.179688-3.1875 3.71875.828125 6.710937 3.582031 7.847656 7.21875 1.144531 3.632812.253906 7.605469-2.328125 10.414062l-13.574219 14.757813c-2.027344 2.199219-4.878906 3.449219-7.863281 3.449219zm0 0" data-original="#000000" class="active-path" data-old_color="#000000" fill="#ffffff"/><path d="m53.335938 597.335938c-4.234376 0-8.066407-2.507813-9.773438-6.382813-1.695312-3.878906-.945312-8.390625 1.921875-11.507813l7.21875-7.847656c4.023437-4.160156 10.625-4.355468 14.882813-.441406 4.257812 3.917969 4.625 10.515625.816406 14.867188l-7.222656 7.851562c-2.015626 2.203125-4.859376 3.453125-7.84375 3.460938zm0 0" data-original="#000000" class="active-path" data-old_color="#000000" fill="#ffffff"/><path d="m618.667969 640h-597.335938c-11.78125 0-21.332031-9.550781-21.332031-21.332031v-597.335938c0-11.78125 9.550781-21.332031 21.332031-21.332031h597.335938c11.78125 0 21.332031 9.550781 21.332031 21.332031v597.335938c0 11.78125-9.550781 21.332031-21.332031 21.332031zm-597.335938-618.667969v597.335938h597.335938v-597.335938zm565.332031 576.003907h-245.332031c-5.886719 0-10.664062-4.777344-10.664062-10.671876v-533.328124c0-5.894532 4.777343-10.671876 10.664062-10.671876h245.332031c5.894532 0 10.671876 4.777344 10.671876 10.671876v533.328124c0 5.894532-4.777344 10.671876-10.671876 10.671876zm-234.664062-21.335938h224v-512h-224zm-53.332031 21.335938h-245.332031c-5.894532 0-10.671876-4.777344-10.671876-10.671876v-533.328124c0-5.894532 4.777344-10.671876 10.671876-10.671876h245.332031c5.886719 0 10.664062 4.777344 10.664062 10.671876v533.328124c0 5.894532-4.777343 10.671876-10.664062 10.671876zm-234.667969-21.335938h224v-512h-224zm0 0" data-original="#000000" class="active-path" data-old_color="#000000" fill="#ffffff"/><path d="m586.664062 597.335938h-245.332031c-5.886719 0-10.664062-4.777344-10.664062-10.671876v-533.328124c0-5.894532 4.777343-10.671876 10.664062-10.671876h245.332031c5.894532 0 10.671876 4.777344 10.671876 10.671876v533.328124c0 5.894532-4.777344 10.671876-10.671876 10.671876zm-234.664062-21.335938h224v-512h-224zm0 0" data-original="#000000" class="active-path" data-old_color="#000000" fill="#ffffff"/><path d="m579.445312 71.851562c-4.234374 0-8.070312-2.507812-9.765624-6.382812-1.703126-3.875-.949219-8.390625 1.917968-11.503906l7.222656-7.851563c3.984376-4.339843 10.734376-4.625 15.070313-.636719 4.34375 3.992188 4.625 10.738282.636719 15.078126l-7.222656 7.847656c-2.023438 2.203125-4.875 3.453125-7.859376 3.449218zm0 0" data-original="#000000" class="active-path" data-old_color="#000000" fill="#ffffff"/><path d="m375.722656 293.335938c-4.234375 0-8.066406-2.507813-9.765625-6.382813-1.703125-3.875-.953125-8.394531 1.914063-11.507813l13.578125-14.761718c3.988281-4.335938 10.738281-4.621094 15.074219-.628906 4.335937 3.988281 4.617187 10.734374.628906 15.070312l-13.578125 14.761719c-2.015625 2.203125-4.867188 3.457031-7.851563 3.449219zm40.738282-44.292969c-4.234376 0-8.0625-2.503907-9.761719-6.382813-1.699219-3.875-.949219-8.386718 1.917969-11.503906l13.578124-14.757812c2.550782-2.925782 6.484376-4.234376 10.28125-3.421876 3.789063.816407 6.839844 3.625 7.96875 7.335938 1.121094 3.710938.144532 7.742188-2.558593 10.523438l-13.566407 14.765624c-2.03125 2.179688-4.882812 3.417969-7.859374 3.402344zm40.746093-44.285157c-4.234375 0-8.066406-2.5-9.769531-6.378906-1.699219-3.878906-.949219-8.394531 1.917969-11.507812l13.578125-14.804688c3.988281-4.335937 10.738281-4.621094 15.070312-.628906 4.335938 3.988281 4.617188 10.734375.628906 15.070312l-13.5625 14.75c-2.019531 2.210938-4.875 3.460938-7.863281 3.445313zm40.746094-44.28125c-4.234375 0-8.066406-2.5-9.769531-6.375-1.699219-3.875-.949219-8.394531 1.917968-11.507812l13.566407-14.765625c3.988281-4.335937 10.742187-4.621094 15.078125-.636719 4.339844 3.988282 4.621094 10.742188.632812 15.078125l-13.5625 14.714844c-2.023437 2.191406-4.871094 3.441406-7.851562 3.441406zm40.714844-44.339843c-4.234375-.003907-8.0625-2.507813-9.761719-6.378907-1.699219-3.878906-.941406-8.390624 1.917969-11.507812l13.582031-14.765625c2.582031-2.800781 6.457031-4.015625 10.179688-3.1875 3.71875.835937 6.707031 3.589844 7.851562 7.222656 1.136719 3.636719.25 7.605469-2.328125 10.410157l-13.582031 14.765624c-2.019532 2.195313-4.871094 3.445313-7.859375 3.441407zm0 0" data-original="#000000" class="active-path" data-old_color="#000000" fill="#ffffff"/><path d="m348.554688 338.515625c-2.984376 0-5.828126-1.25-7.851563-3.441406l-7.222656-7.851563c-3.753907-4.082031-3.753907-10.363281 0-14.445312l7.222656-7.851563c2.582031-2.808593 6.460937-4.023437 10.179687-3.191406 3.722657.835937 6.71875 3.582031 7.859376 7.21875 1.140624 3.640625.25 7.609375-2.328126 10.417969l-.585937.636718.585937.640626c2.867188 3.117187 3.621094 7.632812 1.921876 11.507812-1.703126 3.878906-5.539063 6.382812-9.773438 6.382812zm0 0" data-original="#000000" class="active-path" data-old_color="#000000" fill="#ffffff"/><path d="m552.273438 560c-2.976563.003906-5.824219-1.246094-7.835938-3.445312l-13.578125-14.761719c-3.988281-4.335938-3.707031-11.085938.628906-15.074219 4.335938-3.988281 11.085938-3.707031 15.070313.628906l13.578125 14.765625c2.867187 3.117188 3.617187 7.628907 1.917969 11.503907-1.699219 3.878906-5.53125 6.382812-9.765626 6.382812zm-40.730469-44.289062c-2.984375 0-5.832031-1.25-7.851563-3.445313l-13.570312-14.761719c-2.699219-2.78125-3.679688-6.808594-2.550782-10.527344 1.121094-3.710937 4.171876-6.515624 7.96875-7.332031 3.789063-.816406 7.722657.492188 10.277344 3.417969l13.574219 14.757812c2.867187 3.117188 3.617187 7.628907 1.921875 11.507813-1.699219 3.875-5.53125 6.378906-9.757812 6.382813zm-40.746094-44.285157c-2.984375.003907-5.832031-1.246093-7.84375-3.449219l-13.585937-14.757812c-4-4.335938-3.726563-11.09375.609374-15.09375 4.335938-4.003906 11.085938-3.730469 15.09375.605469l13.585938 14.761719c2.867188 3.117187 3.617188 7.632812 1.914062 11.507812-1.699218 3.875-5.53125 6.382812-9.765624 6.382812zm-40.75-44.277343c-2.980469 0-5.828125-1.25-7.851563-3.445313l-13.566406-14.761719c-3.988281-4.339844-3.703125-11.089844.632813-15.078125 4.339843-3.988281 11.089843-3.707031 15.078125.632813l13.570312 14.761718c2.867188 3.117188 3.617188 7.632813 1.914063 11.507813-1.699219 3.878906-5.53125 6.382813-9.765625 6.382813zm-40.714844-44.339844c-2.984375 0-5.832031-1.25-7.847656-3.449219l-13.578125-14.757813c-2.585938-2.808593-3.46875-6.78125-2.328125-10.414062 1.136719-3.636719 4.128906-6.390625 7.851563-7.21875 3.714843-.835938 7.59375.378906 10.171874 3.1875l13.582032 14.761719c2.863281 3.113281 3.617187 7.625 1.917968 11.503906-1.699218 3.875-5.527343 6.382813-9.757812 6.386719zm0 0" data-original="#000000" class="active-path" data-old_color="#000000" fill="#ffffff"/><path d="m586.664062 597.335938c-2.984374 0-5.828124-1.25-7.84375-3.449219l-7.222656-7.851563c-3.988281-4.335937-3.707031-11.089844.632813-15.074218 4.335937-3.988282 11.089843-3.703126 15.074219.636718l7.222656 7.847656c2.871094 3.117188 3.617187 7.632813 1.914062 11.511719-1.707031 3.878907-5.539062 6.382813-9.777344 6.378907zm0 0" data-original="#000000" class="active-path" data-old_color="#000000" fill="#ffffff"/></g> </svg>
