<?xml version="1.0"?>
<svg xmlns="http://www.w3.org/2000/svg" xmlns:xlink="http://www.w3.org/1999/xlink" version="1.1" id="Capa_1" x="0px" y="0px" viewBox="0 0 512 512" style="enable-background:new 0 0 512 512;" xml:space="preserve" width="512px" height="512px"><g><g>
	<g>
		<path d="M432,49v15h24.5v87.321c-9.851-3.176-17-12.427-17-23.321h-15c0,13.509-10.991,24.5-24.5,24.5v15    c13.509,0,24.5,10.991,24.5,24.5h15c0-10.894,7.149-20.145,17-23.321V497h-401V64H368V49H40.5v463h431V49H432z M432,168.884    c-2.471-3.412-5.472-6.413-8.884-8.884c3.412-2.471,6.413-5.472,8.884-8.884c2.471,3.412,5.472,6.413,8.884,8.884    C437.472,162.471,434.471,165.472,432,168.884z" data-original="#000000" class="active-path" data-old_color="#000000" fill="#FFFFFF"/>
	</g>
</g><g>
	<g>
		<polygon points="72.5,81 72.5,256 87.5,256 87.5,96 232.5,96 232.5,465 87.5,465 87.5,320 72.5,320 72.5,480 247.5,480 247.5,81       " data-original="#000000" class="active-path" data-old_color="#000000" fill="#FFFFFF"/>
	</g>
</g><g>
	<g>
		<polygon points="264.5,81 264.5,440.5 279.5,440.5 279.5,96 432,96 432,81   " data-original="#000000" class="active-path" data-old_color="#000000" fill="#FFFFFF"/>
	</g>
</g><g>
	<g>
		<polygon points="424.5,224 424.5,465 272,465 272,480 439.5,480 439.5,224   " data-original="#000000" class="active-path" data-old_color="#000000" fill="#FFFFFF"/>
	</g>
</g><g>
	<g>
		<rect x="105.368" y="129" transform="matrix(0.7071 -0.7071 0.7071 0.7071 -59.0306 130.4884)" width="45.26" height="15" data-original="#000000" class="active-path" data-old_color="#000000" fill="#FFFFFF"/>
	</g>
</g><g>
	<g>
		<rect x="98.747" y="145.003" transform="matrix(0.7071 -0.7071 0.7071 0.7071 -65.659 146.4915)" width="90.509" height="15" data-original="#000000" class="active-path" data-old_color="#000000" fill="#FFFFFF"/>
	</g>
</g><g>
	<g>
		<rect x="297.367" y="128.997" transform="matrix(0.7071 -0.7071 0.7071 0.7071 -2.7931 266.2512)" width="45.26" height="15" data-original="#000000" class="active-path" data-old_color="#000000" fill="#FFFFFF"/>
	</g>
</g><g>
	<g>
		<rect x="290.744" y="145.002" transform="matrix(0.7071 -0.7071 0.7071 0.7071 -9.4238 282.2536)" width="90.509" height="15" data-original="#000000" class="active-path" data-old_color="#000000" fill="#FFFFFF"/>
	</g>
</g><g>
	<g>
		<path d="M119.5,256h-15c0,13.509-10.991,24.5-24.5,24.5v15c13.509,0,24.5,10.991,24.5,24.5h15c0-13.509,10.991-24.5,24.5-24.5v-15    C130.491,280.5,119.5,269.509,119.5,256z M112,296.884c-2.471-3.412-5.472-6.413-8.884-8.884c3.412-2.471,6.413-5.472,8.884-8.884    c2.471,3.412,5.472,6.413,8.884,8.884C117.472,290.471,114.471,293.472,112,296.884z" data-original="#000000" class="active-path" data-old_color="#000000" fill="#FFFFFF"/>
	</g>
</g><g>
	<g>
		<path d="M407.5,0h-15c0,13.509-10.991,24.5-24.5,24.5v15c13.509,0,24.5,10.991,24.5,24.5h15c0-13.509,10.991-24.5,24.5-24.5v-15    C418.491,24.5,407.5,13.509,407.5,0z M400,40.884c-2.471-3.412-5.472-6.413-8.884-8.884c3.412-2.471,6.413-5.472,8.884-8.884    c2.471,3.412,5.472,6.413,8.884,8.884C405.472,34.471,402.471,37.472,400,40.884z" data-original="#000000" class="active-path" data-old_color="#000000" fill="#FFFFFF"/>
	</g>
</g><g>
	<g>
		<rect x="384" y="273" width="16" height="15" data-original="#000000" class="active-path" data-old_color="#000000" fill="#FFFFFF"/>
	</g>
</g><g>
	<g>
		<rect x="344" y="273" width="16" height="15" data-original="#000000" class="active-path" data-old_color="#000000" fill="#FFFFFF"/>
	</g>
</g><g>
	<g>
		<rect x="304" y="273" width="16" height="15" data-original="#000000" class="active-path" data-old_color="#000000" fill="#FFFFFF"/>
	</g>
</g></g> </svg>
